<?xml version="1.0" encoding="utf-8"?>
<!-- Generator: Adobe Illustrator 27.5.0, SVG Export Plug-In . SVG Version: 6.00 Build 0)  -->
<svg version="1.1" xmlns="http://www.w3.org/2000/svg" xmlns:xlink="http://www.w3.org/1999/xlink" x="0px" y="0px"
	 viewBox="0 0 500 500" style="enable-background:new 0 0 500 500;" xml:space="preserve">
<g id="BACKGROUND">
	<rect style="fill:#FFFFFF;" width="500" height="500"/>
</g>
<g id="OBJECTS">
	<g>
		<polygon style="fill:none;stroke:#010101;stroke-width:3;stroke-miterlimit:10;" points="94.462,358.412 117.15,346.484 
			112.817,371.749 131.173,389.641 105.806,393.327 94.462,416.313 83.117,393.327 57.75,389.641 76.106,371.749 71.773,346.484 		
			"/>
		<polygon style="fill:none;stroke:#010101;stroke-width:3;stroke-miterlimit:10;" points="431.588,182.853 440.494,182.945 
			435.004,189.958 437.669,198.457 429.302,195.403 422.042,200.564 422.362,191.662 415.21,186.353 423.775,183.906 
			426.615,175.464 		"/>
		<polygon style="fill:none;stroke:#010101;stroke-width:3;stroke-miterlimit:10;" points="61.382,156.003 70.289,156.095 
			64.798,163.109 67.463,171.608 59.096,168.553 51.837,173.714 52.156,164.813 45.005,159.503 53.569,157.056 56.409,148.614 		"/>
		<polygon style="fill:none;stroke:#010101;stroke-width:3;stroke-miterlimit:10;" points="244.052,65.747 258.307,79.162 
			238.989,82.317 230.636,100.021 221.665,82.623 202.247,80.149 216.021,66.241 212.373,47.009 229.857,55.812 247.02,46.399 		"/>
		<polygon style="fill:none;stroke:#010101;stroke-width:3;stroke-miterlimit:10;" points="439.09,349.901 454.995,354.984 
			441.287,364.517 441.368,381.214 428.066,371.122 412.211,376.359 417.698,360.589 407.818,347.129 424.512,347.474 
			434.26,333.918 		"/>
	</g>
	<g>
		<path style="fill:none;stroke:#010101;stroke-width:3;stroke-miterlimit:10;" d="M312.606,371.164
			c-2.129,0.757-4.178,1.694-6.131,2.794c-9.376-10.262-22.581-16.665-37.225-16.665c-3.341,0-6.608,0.333-9.771,0.97"/>
		<path style="fill:none;stroke:#010101;stroke-width:3;stroke-miterlimit:10;" d="M190.527,373.478
			c-6.217,3.301-11.506,8.237-15.353,14.265c-2.819-1.205-5.902-1.875-9.136-1.875c-13.344,0-24.162,11.312-24.162,25.265
			c0,13.954,10.818,25.265,24.162,25.265c3.234,0,6.317-0.669,9.136-1.875c7.236,11.341,19.579,18.815,33.595,18.815
			c8.031,0,15.508-2.463,21.796-6.692c9.437,11.231,23.264,18.328,38.684,18.328c14.644,0,27.85-6.403,37.225-16.665
			c5.69,3.206,12.199,5.028,19.116,5.028c14.016,0,26.359-7.474,33.595-18.815c2.819,1.205,5.902,1.875,9.136,1.875
			c13.344,0,24.162-11.312,24.162-25.265c0-13.954-10.818-25.265-24.162-25.265c-2.822,0-5.528,0.51-8.045,1.44"/>
		<g>
			<path style="fill:#010101;" d="M340.625,437.597c3.287-0.799,6.189-2.568,8.583-4.785c1.204-1.107,2.289-2.333,3.27-3.627
				c0.966-1.281,1.885-2.699,2.549-4.038l0,0l2.18-0.469c0.546,0.451,1.323,0.944,2.047,1.353c0.745,0.418,1.522,0.793,2.321,1.125
				c1.598,0.663,3.285,1.156,5.02,1.441c3.471,0.593,7.124,0.347,10.621-0.63c-3.326,1.446-7.015,2.24-10.764,2.123
				c-1.872-0.048-3.751-0.321-5.589-0.8c-0.919-0.241-1.829-0.533-2.725-0.884c-0.911-0.368-1.741-0.724-2.689-1.298l2.18-0.469v0
				c-1.077,1.536-2.213,2.795-3.466,4.036c-1.249,1.219-2.588,2.34-4.025,3.313C347.281,435.941,343.992,437.299,340.625,437.597z"
				/>
		</g>
		<g>
			<g>
				<path style="fill:#010101;" d="M241.662,434.338c2.353,3.277,4.908,6.278,7.853,8.759c1.511,1.193,3.056,2.314,4.721,3.239
					c1.669,0.911,3.4,1.702,5.207,2.294c1.789,0.645,3.659,1.073,5.55,1.38c1.89,0.346,3.818,0.475,5.759,0.569
					c3.887,0.111,7.828-0.167,11.798-0.833c-3.624,1.808-7.663,2.757-11.751,3.064c-4.094,0.305-8.304-0.142-12.274-1.479
					c-1.968-0.705-3.88-1.585-5.665-2.68c-1.748-1.152-3.404-2.437-4.851-3.928C245.129,441.732,242.965,438.154,241.662,434.338z"
					/>
			</g>
			<g>
				<path style="fill:#010101;" d="M166.773,403.783c0.953-2.079,2.679-3.845,4.768-4.968c2.095-1.129,4.484-1.645,6.854-1.729
					c2.381-0.087,4.768,0.301,7.042,1.081c2.27,0.788,4.459,2.005,6.218,3.971l-2.129,1.73c-1.192-1.484-3.027-2.617-4.951-3.45
					c-1.945-0.825-4.063-1.301-6.197-1.436c-2.136-0.126-4.304,0.171-6.299,0.972C170.072,400.738,168.289,402.068,166.773,403.783z
					"/>
			</g>
			<g>
				<path style="fill:#010101;" d="M267.341,381.755c1.224-1.162,2.673-2.185,4.357-2.809c1.681-0.618,3.564-0.777,5.319-0.44
					c1.761,0.329,3.379,1.087,4.78,2.096c0.701,0.508,1.356,1.076,1.947,1.727c0.591,0.654,1.135,1.361,1.564,2.283l-2.255-0.596
					l0,0c1.014-0.542,1.896-0.802,2.89-1.006c0.972-0.183,1.974-0.234,2.944-0.086c0.97,0.14,1.893,0.485,2.683,0.982
					c0.789,0.502,1.444,1.144,1.98,1.845c-0.711-0.525-1.49-0.931-2.291-1.163c-0.804-0.227-1.621-0.277-2.402-0.165
					c-0.781,0.106-1.527,0.371-2.218,0.725c-0.667,0.343-1.384,0.84-1.814,1.287l0,0l-2.256-0.596
					c-0.457-0.978-1.466-2.044-2.53-2.805c-1.084-0.781-2.315-1.346-3.573-1.579c-1.259-0.238-2.537-0.128-3.738,0.307
					c-1.201,0.445-2.315,1.212-3.313,2.158L267.341,381.755z"/>
			</g>
		</g>
	</g>
	<g>
		<path style="fill:none;stroke:#010101;stroke-width:3;stroke-miterlimit:10;" d="M278.298,136.921
			c-1.51,4.467-2.329,9.252-2.329,14.229c0,12.586,7.621,26.178,16.035,34.257"/>
		<path style="fill:none;stroke:#010101;stroke-width:3;stroke-miterlimit:10;" d="M320.364,315.01
			c15.506,0,29.155-7.95,37.095-19.996"/>
		<path style="fill:none;stroke:#010101;stroke-width:3;stroke-miterlimit:10;" d="M220.361,219.339
			c-19.82,6.269-34.187,24.807-34.187,46.7c0,4.996,0.748,9.818,2.139,14.359"/>
		<g>
			<path style="fill:#010101;" d="M302.384,121.553c-1.788-1.665-3.394-3.247-4.991-4.837c-1.603-1.571-3.133-3.186-4.852-4.604
				c-1.704-1.43-3.526-2.71-5.427-3.848c-1.894-1.148-3.868-2.17-5.927-2.987c-4.099-1.678-8.442-2.762-12.879-3.27
				c-4.438-0.52-8.954-0.521-13.481-0.186l-0.002,0l1.297-1.704c0.969,4.388,2.461,8.844,4.281,13.025
				c0.926,2.096,1.952,4.142,3.077,6.127c1.14,1.976,2.413,3.864,3.775,5.677c1.361,1.816,2.88,3.503,4.516,5.061
				c1.62,1.575,3.371,3.018,5.265,4.252c3.783,2.52,7.878,4.332,12.224,6.56c-1.212,0.053-2.453,0.08-3.653-0.105
				c-0.602-0.086-1.211-0.165-1.814-0.276c-0.598-0.124-1.185-0.292-1.776-0.454c-1.197-0.29-2.313-0.807-3.456-1.261
				c-1.093-0.556-2.206-1.092-3.239-1.761c-4.227-2.528-7.938-5.904-10.965-9.757c-3.058-3.838-5.485-8.131-7.337-12.618
				c-1.856-4.508-3.224-9.119-3.867-14.038l-0.21-1.609l1.507-0.095l0.002,0c4.665-0.818,9.471-1.038,14.251-0.602
				c4.781,0.404,9.529,1.587,13.979,3.473c4.453,1.891,8.573,4.555,12.122,7.815c1.764,1.635,3.474,3.352,4.818,5.355
				C300.939,116.891,302.045,119.098,302.384,121.553z"/>
		</g>
		<path style="fill:none;stroke:#010101;stroke-width:2;stroke-miterlimit:10;" d="M265.061,107.87c0,0,23.553,0.514,32.577,23.036
			C297.638,130.907,274.81,136.921,265.061,107.87z"/>
		<g>
			<path style="fill:#010101;" d="M324.929,195.313c2.736-1.091,5.442-1.863,8.174-2.555c2.732-0.668,5.478-1.265,8.175-2.054
				c5.401-1.536,10.7-3.431,15.773-5.785c5.064-2.361,9.951-5.104,14.4-8.422c1.126-0.811,2.195-1.693,3.264-2.572l1.565-1.361
				c0.499-0.459,0.982-0.912,1.442-1.399c1.85-1.93,3.422-4.125,4.651-6.499c1.226-2.374,2.132-4.921,2.631-7.55
				c0.519-2.778,1.086-5.577,1.501-8.316c0.407-2.736,0.702-5.499,0.441-8.038c-0.141-1.253-0.439-2.443-0.987-3.308
				c-0.269-0.435-0.59-0.789-0.968-1.067c-0.192-0.136-0.398-0.256-0.621-0.36l-0.872-0.361c-1.193-0.457-2.403-0.721-3.649-0.826
				c-1.249-0.108-2.55-0.001-3.982,0.117c-1.42,0.123-2.992,0.214-4.575,0.045c-1.584-0.175-3.14-0.602-4.57-1.201
				c-2.869-1.21-5.304-2.961-7.578-4.802c-2.258-1.869-4.327-3.894-6.329-5.965l2.138-2.104c1.995,1.967,4.05,3.865,6.208,5.576
				c2.152,1.703,4.42,3.256,6.815,4.223c1.196,0.482,2.413,0.792,3.656,0.917c1.249,0.114,2.528,0.035,3.935-0.105
				c1.395-0.131,2.938-0.29,4.527-0.177c1.587,0.101,3.182,0.453,4.641,1.019c0.367,0.152,0.71,0.28,1.096,0.455
				c0.424,0.196,0.831,0.432,1.219,0.71c0.77,0.56,1.412,1.285,1.887,2.058c0.961,1.563,1.306,3.218,1.489,4.774
				c0.309,3.13-0.046,6.068-0.466,8.942c-0.439,2.881-1.006,5.653-1.532,8.46c-0.565,2.955-1.583,5.819-2.966,8.49
				c-1.375,2.678-3.183,5.129-5.288,7.277c-0.521,0.54-1.08,1.054-1.633,1.55l-1.667,1.418c-1.135,0.913-2.271,1.828-3.46,2.665
				c-4.707,3.423-9.81,6.237-15.093,8.563c-5.284,2.335-10.757,4.178-16.314,5.649C336.465,194.791,330.797,196.289,324.929,195.313
				z"/>
		</g>
		<path style="fill:none;stroke:#010101;stroke-width:3;stroke-miterlimit:10;" d="M280.326,102.847
			c10.052-25.096,43.984-30.122,59.578-9.704c9.767,12.789,23.454,9.842,25.444-0.599c0,0,7.748,13.163-1.885,23.634
			s-30.993,12.041-42.93,1.152c-11.936-10.889-23.925-3.689-23.925-3.689"/>
		<path style="fill:none;stroke:#010101;stroke-width:3;stroke-miterlimit:10;" d="M337.404,193.125
			c25.738,31.605,30.257,57.709,28.628,75.539"/>
		<path style="fill:none;stroke:#010101;stroke-width:3;stroke-miterlimit:10;" d="M291.69,185.033
			c20.467,24.194,10.694,44.987,10.694,44.987s-58.783-25.87-91.517-6.508"/>
		<g>
			<path style="fill:#010101;" d="M189.703,279.829c4.409,10.797,8.991,21.503,13.537,32.272c1.124,2.703,2.251,5.401,3.262,8.209
				c0.489,1.425,0.989,2.819,1.23,4.542c0.045,0.447,0.09,0.906-0.002,1.494c-0.024,0.27-0.139,0.615-0.267,0.93
				c-0.179,0.341-0.396,0.669-0.71,0.928c-0.607,0.51-1.277,0.68-1.768,0.746c-0.473,0.049-0.88,0.079-1.307,0.077
				c-1.678-0.02-3.2-0.346-4.637-0.652c-1.415-0.298-2.826-0.637-3.96-0.607c-0.582-0.003-1.001,0.126-1.277,0.32l-0.115,0.064
				l-0.088,0.105l-0.096,0.095l-0.044,0.038c0.025-0.022,0.045-0.049,0.06-0.078l0.018-0.046l-0.006,0.023l-0.017,0.053
				c-0.013,0.022-0.03,0.095-0.046,0.161c-0.035,0.121-0.065,0.276-0.094,0.433c-0.231,1.288-0.35,2.753-0.458,4.176
				c-0.395,5.754-0.526,11.591-0.651,17.409c-0.113,5.824-0.173,11.652-0.21,17.482c-0.069,11.659-0.049,23.326,0.037,34.984
				l-0.654-1.226c1.803,1.169,3.86,2.257,5.898,3.2c2.055,0.952,4.163,1.794,6.311,2.513c4.297,1.437,8.751,2.389,13.248,2.787
				c2.25,0.181,4.507,0.23,6.758,0.137c2.248-0.134,4.491-0.366,6.702-0.793c4.424-0.833,8.712-2.326,12.757-4.317l-0.734,1.866
				l-0.001-0.002c-1.792-4.597-3.508-9.21-5.193-13.841c-1.678-4.632-3.38-9.256-4.959-13.925
				c-3.166-9.339-6.303-18.68-8.878-28.273c-0.617-2.412-1.21-4.826-1.631-7.351c-0.101-0.635-0.194-1.275-0.254-1.945
				c-0.061-0.67-0.105-1.35-0.009-2.202c0.076-0.41,0.077-0.951,0.719-1.742c0.207-0.205,0.385-0.387,0.711-0.512
				c0.285-0.132,0.733-0.199,0.686-0.186l0.389-0.051c0.502-0.076,0.925-0.197,1.256-0.372c1.294-0.548,1.81-2.903,1.894-5.165
				c0.085-2.309-0.118-4.713-0.425-7.106c-0.607-4.798-1.653-9.585-2.687-14.368c-1.012-4.794-2.008-9.605-2.549-14.564
				c2.14,4.508,3.704,9.2,5.006,13.97c1.265,4.781,2.344,9.617,3.106,14.565c0.369,2.478,0.647,4.987,0.608,7.601
				c-0.04,1.311-0.143,2.654-0.553,4.057c-0.225,0.702-0.521,1.42-0.99,2.108c-0.471,0.685-1.151,1.305-1.906,1.708
				c-0.755,0.409-1.537,0.613-2.246,0.732l-0.525,0.076c-0.202,0.02,0.104,0.018,0.243-0.066c0.165-0.101,0.256-0.139,0.348-0.243
				c0.253-0.319,0.107-0.226,0.121-0.032c-0.036,0.37-0.021,0.927,0.045,1.479c0.057,0.554,0.148,1.132,0.247,1.71
				c0.418,2.324,1.027,4.687,1.661,7.032c2.572,9.406,5.693,18.738,8.866,28.026l4.805,13.933l4.905,13.898l0.001,0.002l0.474,1.271
				l-1.209,0.595c-4.28,2.109-8.84,3.696-13.542,4.581c-2.35,0.453-4.732,0.701-7.117,0.841c-2.388,0.1-4.778,0.048-7.156-0.144
				c-4.753-0.42-9.438-1.424-13.945-2.931c-2.254-0.755-4.463-1.636-6.62-2.636c-2.17-1.012-4.235-2.087-6.328-3.444l-0.648-0.42
				l-0.006-0.805c-0.086-11.679-0.106-23.35-0.037-35.029c0.037-5.839,0.097-11.679,0.211-17.522
				c0.126-5.847,0.255-11.681,0.658-17.57c0.116-1.484,0.222-2.934,0.503-4.519c0.038-0.201,0.078-0.404,0.14-0.635
				c0.028-0.111,0.053-0.216,0.107-0.364l0.073-0.205l0.04-0.105l0.084-0.165c0.059-0.109,0.124-0.216,0.193-0.317
				c0.055-0.071,0.094-0.107,0.143-0.162l0.284-0.298l0.292-0.289l0.344-0.234c0.927-0.633,2.004-0.829,2.872-0.831
				c1.793-0.021,3.242,0.388,4.675,0.673c1.41,0.306,2.765,0.572,4.01,0.584c0.301,0.004,0.624-0.028,0.875-0.047
				c0.229-0.023,0.281-0.092,0.234-0.048c-0.124,0.251,0.057-0.152-0.042-0.737c-0.156-1.171-0.611-2.558-1.077-3.883
				c-0.965-2.683-2.086-5.372-3.202-8.056c-4.53-10.731-9.131-21.482-13.545-32.292L189.703,279.829z"/>
		</g>
		<path style="fill:none;stroke:#010101;stroke-width:3;stroke-miterlimit:10;" d="M347.809,338.167
			c-1.94-9.827-3.623-19.84-4.758-29.385"/>
		<path style="fill:none;stroke:#010101;stroke-width:3;stroke-miterlimit:10;" d="M315.121,315.01
			c-1.815,6.601-3.175,87.992-3.175,87.992s25.548,17.451,53.191,3.63c0,0-4.724-15.101-9.947-35.837"/>
		<path style="fill:none;stroke:#010101;stroke-width:3;stroke-miterlimit:10;" d="M240.205,396.865
			c9.009,1.485,19.983,1.072,31.309-4.591c0,0-25.129-67.291-20.103-67.85c3.297-0.366,6.192-1.871,4.915-9.863"/>
		<path style="fill:none;stroke:#010101;stroke-width:3;stroke-miterlimit:10;" d="M326.04,82.749c0,0,32.219-38.819,33.895-37.702
			c1.675,1.117-16.947,51.506-16.947,51.506"/>
		<path style="fill:none;stroke:#010101;stroke-width:3;stroke-miterlimit:10;" d="M269.348,130.12
			c-32.509,46.709,16.37,72.751,20.74,95.264"/>
		<g>
			<path style="fill:#010101;" d="M322.625,268.663c0.284,1.228,0.866,2.36,1.358,3.517c0.51,1.152,1.044,2.294,1.584,3.434
				l1.613,3.419c0.523,1.143,1.182,2.24,1.458,3.467v0l-2.022-0.845c6.436-2.869,12.897-5.621,19.424-8.262
				c6.537-2.618,13.094-5.177,19.904-7.25c1.71-0.507,3.434-0.983,5.238-1.34c0.906-0.174,1.825-0.325,2.838-0.369
				c0.515-0.013,1.044-0.016,1.7,0.126c0.328,0.079,0.708,0.19,1.139,0.49c0.206,0.138,0.445,0.377,0.601,0.611l0.175,0.296
				l0.107,0.23c0.442,1.098,0.586,1.913,0.798,2.823c0.191,0.886,0.355,1.762,0.51,2.638c0.309,1.75,0.581,3.494,0.839,5.239
				c1.021,6.975,1.859,13.948,2.675,20.926c1.612,13.955,3.057,27.92,4.448,41.89c0.777,7.086,0.524,14.334-0.709,21.379
				c-0.63,3.524-1.51,7.002-2.625,10.403c-0.551,1.703-1.187,3.377-1.85,5.039l-1.997,4.87l-0.51,1.243l-1.273-0.366
				c-3.968-1.14-7.764-2.503-11.538-4.063c-3.76-1.564-7.448-3.337-10.979-5.446c-3.514-2.122-6.925-4.553-9.771-7.724
				c-1.417-1.58-2.675-3.371-3.569-5.393c-0.897-2.013-1.376-4.283-1.266-6.535l0.01-0.214l0.079-0.23l5.176-15.024l5.09-15.048
				c1.689-5.015,3.345-10.041,4.892-15.083c0.77-2.52,1.518-5.047,2.173-7.567c0.324-1.256,0.632-2.523,0.846-3.732
				c0.052-0.3,0.097-0.596,0.128-0.87c0.03-0.262,0.043-0.55,0.036-0.637c0-0.022-0.003-0.015,0.01,0.036
				c0.012,0.053,0.013,0.044,0.051,0.152c0.017,0.042,0.037,0.083,0.061,0.121c0.036,0.071,0.085,0.147,0.139,0.212
				c0.042,0.049,0.141,0.166,0.247,0.248c0.103,0.079,0.219,0.153,0.374,0.224c0.147,0.065,0.312,0.099,0.432,0.118
				c0.105,0.022,0.329,0.009,0.337,0.006c0.016-0.002-0.021,0.001-0.068,0.011c-0.201,0.037-0.507,0.116-0.796,0.198
				c-2.413,0.712-4.941,1.631-7.421,2.505l-7.48,2.689c-4.993,1.8-10.009,3.552-15.085,5.201c-2.547,0.813-5.09,1.613-7.762,2.251
				c-0.674,0.156-1.353,0.301-2.09,0.405c-0.376,0.049-0.749,0.095-1.223,0.09c-0.243-0.008-0.499-0.011-0.9-0.121
				c-0.213-0.071-0.472-0.151-0.809-0.444c-0.175-0.162-0.332-0.367-0.445-0.628l-0.057-0.139l-1.446-3.7
				c-1.872-4.957-3.597-9.974-4.831-15.207c2.855,4.552,5.22,9.32,7.437,14.148l1.621,3.639c0.012,0.027,0.042,0.1,0.04,0.09
				c-0.078-0.184-0.184-0.324-0.301-0.427c-0.211-0.183-0.313-0.199-0.369-0.221c-0.081-0.022-0.003-0.004,0.085-0.008
				c0.189,0,0.477-0.033,0.756-0.077c0.575-0.092,1.191-0.233,1.806-0.389c2.475-0.64,4.982-1.477,7.469-2.325
				c4.983-1.711,9.932-3.592,14.901-5.429l7.462-2.769c2.512-0.913,4.959-1.839,7.624-2.657c0.349-0.1,0.681-0.198,1.131-0.289
				c0.116-0.022,0.243-0.045,0.424-0.063c0.049-0.008,0.314-0.013,0.461,0.01c0.163,0.016,0.365,0.071,0.551,0.151
				c0.195,0.082,0.346,0.179,0.478,0.288c0.137,0.109,0.272,0.25,0.334,0.336c0.077,0.099,0.15,0.209,0.209,0.314
				c0.04,0.077,0.077,0.155,0.11,0.235c0.077,0.182,0.088,0.256,0.126,0.388c0.05,0.213,0.071,0.383,0.082,0.527
				c0.042,0.575-0.004,0.951-0.043,1.347c-0.044,0.385-0.101,0.744-0.162,1.097c-0.252,1.401-0.578,2.712-0.918,4.022
				c-0.686,2.611-1.449,5.167-2.234,7.717c-1.576,5.093-3.251,10.137-4.958,15.169c-1.689,5.037-3.518,10.023-5.319,15.017
				c-1.808,4.992-3.646,9.968-5.563,14.925l0.09-0.444c-0.193,3.553,1.545,6.999,4.076,9.788c2.527,2.824,5.726,5.13,9.074,7.147
				c3.366,2.011,6.935,3.73,10.589,5.25c3.647,1.51,7.424,2.861,11.177,3.939l-1.782,0.878l1.997-4.868
				c0.637-1.596,1.248-3.203,1.777-4.839c1.071-3.266,1.916-6.606,2.521-9.99c1.182-6.778,1.43-13.692,0.678-20.559
				c-1.39-13.959-2.834-27.914-4.443-41.841c-0.813-6.96-1.651-13.922-2.663-20.833c-0.255-1.726-0.524-3.449-0.825-5.154
				c-0.151-0.852-0.31-1.7-0.489-2.529c-0.173-0.798-0.389-1.712-0.609-2.24l-0.03-0.069c0,0.006,0.003,0.01,0.008,0.012
				c0.032,0.055,0.118,0.132,0.141,0.148c0.072,0.046,0.03,0.01-0.069-0.009c-0.202-0.047-0.558-0.066-0.918-0.052
				c-0.74,0.031-1.56,0.157-2.375,0.316c-1.639,0.323-3.302,0.779-4.954,1.27c-6.619,2.013-13.154,4.558-19.64,7.157
				c-6.482,2.622-12.934,5.37-19.316,8.216l-1.466,0.653l-0.556-1.499l0,0c-0.597-1.134-0.795-2.403-1.118-3.63l-0.876-3.709
				c-0.271-1.243-0.53-2.489-0.766-3.741C322.86,271.211,322.593,269.944,322.625,268.663z"/>
		</g>
		<g>
			<path style="fill:#010101;" d="M315.191,145.286c2.591,2.469,5.219,4.536,8.143,5.819c2.886,1.318,5.959,1.945,9.03,1.886
				c3.069-0.064,6.12-0.78,8.912-2.139c2.789-1.38,5.263-3.447,7.002-6.613c0.132,1.806-0.371,3.693-1.277,5.368
				c-0.907,1.685-2.229,3.156-3.768,4.317c-3.077,2.355-6.967,3.545-10.825,3.552c-3.865,0.023-7.741-1.189-10.823-3.41
				C318.484,151.86,316.262,148.688,315.191,145.286z"/>
		</g>
		<path style="fill:none;stroke:#010101;stroke-width:3;stroke-miterlimit:10;" d="M362.241,164.083
			c10.269,9.76,21.873,1.016,21.873,1.016"/>
		<path style="fill:#010101;" d="M373.8,144.763c2.199-1.126,4.79-0.707,6.151,1.37c0,0-2.827-0.48-4.686,1.379
			C373.407,149.37,370.973,146.49,373.8,144.763z"/>
		<path style="fill:none;stroke:#010101;stroke-width:3;stroke-miterlimit:10;" d="M264.331,183.977
			c12.876,23.733-0.019,34.61-0.019,34.61"/>
		<path style="fill:none;stroke:#010101;stroke-width:3;stroke-miterlimit:10;" d="M320.364,315.01
			c-43.356,0-94.04-0.449-94.04-0.449"/>
		<g>
			<path style="fill:#010101;" d="M306.971,295.696c0.288,0.401,0.555,0.807,0.851,1.189c0.329,0.358,0.604,0.75,0.965,1.065
				c0.662,0.681,1.44,1.212,2.224,1.653c0.799,0.426,1.651,0.699,2.499,0.843c0.424,0.076,0.851,0.1,1.268,0.108
				c0.392-0.007,0.884-0.044,1.118-0.121l0.292,2.992c-0.738-0.016-1.22-0.135-1.792-0.269c-0.543-0.153-1.07-0.33-1.57-0.562
				c-1.001-0.455-1.916-1.053-2.693-1.772c-0.762-0.734-1.435-1.527-1.938-2.41c-0.283-0.418-0.465-0.897-0.695-1.333
				C307.305,296.622,307.146,296.151,306.971,295.696z"/>
		</g>
		<path style="fill:none;stroke:#010101;stroke-width:3;stroke-miterlimit:10;" d="M190.514,378.85
			c30.65,25.409,46.108,7.963,46.108,7.963"/>
		<path style="fill:none;stroke:#010101;stroke-width:3;stroke-miterlimit:10;" d="M265.282,375.081
			c-10.053,14.659-32.974-0.783-32.974-0.783"/>
		<path style="fill:none;stroke:#010101;stroke-width:3;stroke-miterlimit:10;" d="M312.428,378.85
			c7.936,8.307,43.807,21.709,46.685,6.902"/>
		<path style="fill:none;stroke:#010101;stroke-width:3;stroke-miterlimit:10;" d="M348.688,335.669
			c8.771,13.794,26.829,37.15,36.822,20.411"/>
		<path style="fill:none;stroke:#010101;stroke-width:3;stroke-miterlimit:10;" d="M348.688,189.884
			c6.501,34.56,38.373,44.646,57.179,50.018c29.457,8.415,26.665,41.223,6.841,50.018c0,0,9.354-21.257-14.38-22.058
			c-22.618-0.764-32.407-13.54-32.407-13.54"/>
		<path style="fill:none;stroke:#010101;stroke-width:3;stroke-miterlimit:10;" d="M389.583,266.898
			c20.641,4.455,8.954,31.921,30.523,38.115c0,0-28.66,6.436-39.773-13.298"/>
		<line style="fill:none;stroke:#010101;stroke-miterlimit:10;" x1="328.906" y1="79.316" x2="349.635" y2="78.186"/>
		<line style="fill:none;stroke:#010101;stroke-miterlimit:10;" x1="338.231" y1="68.287" x2="353.588" y2="66.896"/>
		<line style="fill:none;stroke:#010101;stroke-miterlimit:10;" x1="347.692" y1="57.37" x2="357.129" y2="56.306"/>
		<path style="fill:none;stroke:#010101;stroke-miterlimit:10;" d="M292.003,109.424c10.381-16.072,27.585-16.351,39.033,0.402
			c10.872,15.91,28.214,12.666,34.21,4.099"/>
		<path style="fill:none;stroke:#010101;stroke-miterlimit:10;" d="M285.2,105.017c3.919-14.387,25.593-25.172,41.927-14.178
			c15.338,10.324,12.879,20.208,24.711,21.988c15.031,2.261,13.51-20.283,13.51-20.283"/>
		<path style="fill:none;stroke:#010101;stroke-miterlimit:10;" d="M273.381,133.672c-15.988,27.111-1.334,45.724,10.605,59.453
			c11.939,13.729,13.074,28.716,11.041,33.997"/>
		<path style="fill:none;stroke:#010101;stroke-miterlimit:10;" d="M273.263,220.503c7.933-5.064,3.077-18.384,3.077-18.384"/>
		<path style="fill:none;stroke:#010101;stroke-miterlimit:10;" d="M354.505,218.587c13.388,24.844,32.647,35.466,50.943,37.129
			c19.964,1.815,21.22,22.337,7.26,34.204"/>
		<path style="fill:none;stroke:#010101;stroke-miterlimit:10;" d="M359.44,213.803c25.322,35.956,62.048,28.779,66.653,43.027"/>
		<path style="fill:none;stroke:#010101;stroke-miterlimit:10;" d="M377.477,271.361c15.685,7.39,18.198,33.247,42.629,33.651"/>
		<path style="fill:none;stroke:#010101;stroke-width:3;stroke-miterlimit:10;" d="M205.42,227.121
			c28.687-59.005-7.98-106.064-63.543-98.561c-36.158,4.883-76.215,41.112-45.104,102.334s-2.312,98.259-2.312,98.259
			s59.173-8.355,50.608-81.778c-6.156-52.769,54.596-57.507,50.039-9.528"/>
		<path style="fill:none;stroke:#010101;stroke-width:3;stroke-miterlimit:10;" d="M102.51,243.712
			c9.671,44.552-17.885,58.774-36.552,48.7c0,0,11.713,22.818,39.931,15.261"/>
		<path style="fill:none;stroke:#010101;stroke-miterlimit:10;" d="M94.462,329.153c46.756-19.259,40.501-82.708,30.312-121.627
			c-15.556-59.413,97.17-76.521,77.474,23.368"/>
		<path style="fill:none;stroke:#010101;stroke-miterlimit:10;" d="M67.288,293.077c31.263,18.817,42.713-9.635,42.713-9.635"/>
		<path style="fill:none;stroke:#010101;stroke-miterlimit:10;" d="M214.049,173.714c-9.484-42.292-69.054-49.432-100.387-20.561
			c-31.333,28.871-5.111,71.089,0.296,91.148c13.136,48.733-10.216,69.088-10.216,69.088"/>
	</g>
</g>
</svg>
