<?xml version="1.0" encoding="utf-8"?>
<!-- Generator: Adobe Illustrator 27.5.0, SVG Export Plug-In . SVG Version: 6.00 Build 0)  -->
<svg version="1.1" xmlns="http://www.w3.org/2000/svg" xmlns:xlink="http://www.w3.org/1999/xlink" x="0px" y="0px"
	 viewBox="0 0 500 500" style="enable-background:new 0 0 500 500;" xml:space="preserve">
<g id="BACKGROUND">
	<rect style="fill:#FFFFFF;" width="500" height="500"/>
</g>
<g id="OBJECTS">
	<g>
		
			<ellipse transform="matrix(0.2298 -0.9732 0.9732 0.2298 73.5597 442.6158)" style="fill:none;stroke:#000000;stroke-width:2;stroke-linecap:round;stroke-linejoin:round;stroke-miterlimit:10;" cx="316.414" cy="174.835" rx="64.235" ry="64.235"/>
		
			<ellipse transform="matrix(0.2298 -0.9732 0.9732 0.2298 73.5597 442.6158)" style="fill:none;stroke:#000000;stroke-width:2;stroke-linecap:round;stroke-linejoin:round;stroke-miterlimit:10;" cx="316.414" cy="174.835" rx="56.17" ry="56.17"/>
		<g>
			<g>
				<path style="fill:none;stroke:#000000;stroke-width:2;stroke-linecap:round;stroke-linejoin:round;stroke-miterlimit:10;" d="
					M283.74,119.562c-8.492-19.398-9.566-41.938-2.956-62.055s20.843-37.628,39.185-48.209
					c15.545,12.816,28.46,30.075,33.435,49.598c4.974,19.523,3.571,40.616-3.947,59.308"/>
				<path style="fill:none;stroke:#000000;stroke-width:2;stroke-linecap:round;stroke-linejoin:round;stroke-miterlimit:10;" d="
					M307.155,67.183c3.954,14.234,7.917,28.466,11.889,42.695c3.161-18.254,6.322-36.509,9.483-54.763"/>
			</g>
			<g>
				<path style="fill:none;stroke:#000000;stroke-width:2;stroke-linecap:round;stroke-linejoin:round;stroke-miterlimit:10;" d="
					M283.74,230.107c-8.492,19.398-9.566,41.938-2.956,62.055c6.61,20.118,20.843,37.628,39.185,48.209
					c15.545-12.816,28.46-30.075,33.435-49.598c4.974-19.523,3.571-40.616-3.947-59.308"/>
				<path style="fill:none;stroke:#000000;stroke-width:2;stroke-linecap:round;stroke-linejoin:round;stroke-miterlimit:10;" d="
					M307.155,282.486c3.954-14.234,7.917-28.466,11.889-42.695c3.161,18.254,6.322,36.508,9.483,54.763"/>
			</g>
		</g>
		<g>
			<g>
				<path style="fill:none;stroke:#000000;stroke-width:2;stroke-linecap:round;stroke-linejoin:round;stroke-miterlimit:10;" d="
					M371.687,142.161c19.398-8.492,41.938-9.566,62.055-2.956c20.118,6.61,37.628,20.843,48.209,39.185
					c-12.816,15.545-30.075,28.46-49.598,33.435c-19.523,4.974-40.616,3.571-59.308-3.947"/>
				<path style="fill:none;stroke:#000000;stroke-width:2;stroke-linecap:round;stroke-linejoin:round;stroke-miterlimit:10;" d="
					M424.066,165.575c-14.234,3.954-28.466,7.917-42.695,11.889c18.254,3.161,36.508,6.322,54.763,9.484"/>
			</g>
			<g>
				<path style="fill:none;stroke:#000000;stroke-width:2;stroke-linecap:round;stroke-linejoin:round;stroke-miterlimit:10;" d="
					M261.142,142.161c-19.398-8.492-41.938-9.566-62.055-2.956c-20.118,6.61-37.628,20.843-48.209,39.185
					c12.816,15.545,30.075,28.46,49.598,33.435c19.523,4.974,40.616,3.571,59.308-3.947"/>
				<path style="fill:none;stroke:#000000;stroke-width:2;stroke-linecap:round;stroke-linejoin:round;stroke-miterlimit:10;" d="
					M208.763,165.575c14.234,3.954,28.466,7.917,42.695,11.889c-18.254,3.161-36.508,6.322-54.763,9.484"/>
			</g>
		</g>
		<g>
			<g>
				<path style="fill:none;stroke:#000000;stroke-width:2;stroke-linecap:round;stroke-linejoin:round;stroke-miterlimit:10;" d="
					M356.365,77.053c5.843-5.374,10.405-8.12,17.492-11.702c18.899-9.551,41.345-11.869,61.797-6.381
					c1.93,20.054-1.142,41.391-11.429,58.713c-3.464,5.833-7.565,11.28-12.19,16.242"/>
				<path style="fill:none;stroke:#000000;stroke-width:2;stroke-linecap:round;stroke-linejoin:round;stroke-miterlimit:10;" d="
					M385.662,90.84c-7.27,12.861-14.531,25.727-21.783,38.597c15.143-10.672,30.286-21.345,45.429-32.017"/>
			</g>
			<g>
				<path style="fill:none;stroke:#000000;stroke-width:2;stroke-linecap:round;stroke-linejoin:round;stroke-miterlimit:10;" d="
					M221.021,215.316c-5.374,5.843-8.509,10.874-12.09,17.961c-9.551,18.899-11.869,41.345-6.381,61.797
					c20.054,1.93,41.391-1.142,58.713-11.429c5.393-3.203,10.456-6.95,15.11-11.152"/>
				<path style="fill:none;stroke:#000000;stroke-width:2;stroke-linecap:round;stroke-linejoin:round;stroke-miterlimit:10;" d="
					M234.419,245.082c12.861-7.27,25.727-14.531,38.597-21.783c-10.672,15.143-21.345,30.286-32.017,45.429"/>
			</g>
		</g>
		<g>
			<g>
				<path style="fill:none;stroke:#000000;stroke-width:2;stroke-linecap:round;stroke-linejoin:round;stroke-miterlimit:10;" d="
					M356.365,272.616c5.843,5.374,10.405,8.12,17.492,11.702c18.899,9.551,41.345,11.869,61.797,6.381
					c1.93-20.054-1.142-41.391-11.429-58.713c-3.464-5.833-7.565-11.28-12.19-16.242"/>
				<path style="fill:none;stroke:#000000;stroke-width:2;stroke-linecap:round;stroke-linejoin:round;stroke-miterlimit:10;" d="
					M385.662,258.829c-7.27-12.861-14.531-25.727-21.783-38.597c15.143,10.672,30.286,21.345,45.429,32.017"/>
			</g>
			<g>
				<path style="fill:none;stroke:#000000;stroke-width:2;stroke-linecap:round;stroke-linejoin:round;stroke-miterlimit:10;" d="
					M221.021,134.353c-5.374-5.843-8.509-10.874-12.09-17.961c-9.551-18.899-11.869-41.345-6.381-61.797
					c20.054-1.93,41.391,1.142,58.713,11.429c5.393,3.203,10.456,6.95,15.11,11.152"/>
				<path style="fill:none;stroke:#000000;stroke-width:2;stroke-linecap:round;stroke-linejoin:round;stroke-miterlimit:10;" d="
					M234.419,104.587c12.861,7.27,25.727,14.531,38.597,21.783c-10.672-15.143-21.345-30.286-32.017-45.429"/>
			</g>
		</g>
		<g>
			<g>
				<path style="stroke:#000000;stroke-width:2;stroke-linecap:round;stroke-linejoin:round;stroke-miterlimit:10;" d="
					M333.503,170.347c0.171,6.077,5.235,10.866,11.313,10.695c6.077-0.171,10.866-5.235,10.695-11.313
					c-0.17-6.077-5.235-10.866-11.313-10.695C338.121,159.205,333.333,164.27,333.503,170.347z"/>
				
					<path style="fill:#FFFFFF;stroke:#000000;stroke-width:2;stroke-linecap:round;stroke-linejoin:round;stroke-miterlimit:10;" d="
					M341.639,165.762c0.068,2.404,2.071,4.299,4.475,4.231c2.404-0.067,4.299-2.071,4.231-4.476
					c-0.068-2.404-2.071-4.299-4.475-4.231C343.466,161.354,341.571,163.358,341.639,165.762z"/>
				
					<circle style="fill:#FFFFFF;stroke:#000000;stroke-width:2;stroke-linecap:round;stroke-linejoin:round;stroke-miterlimit:10;" cx="340.904" cy="172.434" r="2.523"/>
			</g>
			<g>
				<path style="stroke:#000000;stroke-width:2;stroke-linecap:round;stroke-linejoin:round;stroke-miterlimit:10;" d="
					M281.133,160.67c0.171,6.077,5.236,10.866,11.313,10.695c6.077-0.171,10.866-5.235,10.695-11.313
					c-0.171-6.077-5.236-10.866-11.313-10.695C285.75,149.528,280.962,154.593,281.133,160.67z"/>
				
					<path style="fill:#FFFFFF;stroke:#000000;stroke-width:2;stroke-linecap:round;stroke-linejoin:round;stroke-miterlimit:10;" d="
					M289.268,156.085c0.068,2.404,2.071,4.299,4.475,4.231c2.404-0.067,4.299-2.071,4.231-4.475
					c-0.067-2.404-2.071-4.299-4.475-4.231S289.201,153.68,289.268,156.085z"/>
				
					<path style="fill:#FFFFFF;stroke:#000000;stroke-width:2;stroke-linecap:round;stroke-linejoin:round;stroke-miterlimit:10;" d="
					M286.011,162.827c0.039,1.393,1.2,2.49,2.593,2.451c1.393-0.039,2.49-1.2,2.451-2.593c-0.039-1.393-1.2-2.49-2.593-2.451
					C287.069,160.273,285.972,161.434,286.011,162.827z"/>
			</g>
			<path style="fill:none;stroke:#000000;stroke-width:2;stroke-linecap:round;stroke-linejoin:round;stroke-miterlimit:10;" d="
				M325.727,173.063c0,0-5.143,6.542-10.214,5.712c-5.071-0.831-5.954-8.739-5.954-8.739"/>
		</g>
		<path style="fill:none;stroke:#000000;stroke-width:2;stroke-linecap:round;stroke-linejoin:round;stroke-miterlimit:10;" d="
			M300.227,325.227c-7.924,47.943-19.541,95.274-34.715,141.438"/>
		<path style="fill:none;stroke:#000000;stroke-width:2;stroke-linecap:round;stroke-linejoin:round;stroke-miterlimit:10;" d="
			M304.028,328.151c-7.924,47.943-17.497,92.934-32.67,139.098"/>
		<g>
			<path style="fill:none;stroke:#000000;stroke-width:2;stroke-linecap:round;stroke-linejoin:round;stroke-miterlimit:10;" d="
				M275.782,433.276c-18.255-8.948-31.163-26.949-36.516-46.561c-5.353-19.612-3.698-40.656,1.878-60.206
				c5.037,2.671,8.74,6.22,12.392,10.599c10.695,12.823,17.203,28.804,20.229,45.224
				C276.792,398.752,277.688,416.688,275.782,433.276z"/>
			<path style="fill:none;stroke:#000000;stroke-width:2;stroke-linecap:round;stroke-linejoin:round;stroke-miterlimit:10;" d="
				M247.511,358.117c6.21,25.344,15.33,49.973,27.125,73.248"/>
		</g>
		<g>
			<path style="fill:none;stroke:#000000;stroke-width:2;stroke-linecap:round;stroke-linejoin:round;stroke-miterlimit:10;" d="
				M282.034,434.977c5.389-19.603,20.668-35.64,38.939-44.555c18.271-8.915,39.254-11.212,59.501-9.377
				c-1.685,5.446-4.482,9.747-8.103,14.151c-10.604,12.897-25.092,22.27-40.661,28.304
				C316.141,429.534,298.687,433.758,282.034,434.977z"/>
			<path style="fill:none;stroke:#000000;stroke-width:2;stroke-linecap:round;stroke-linejoin:round;stroke-miterlimit:10;" d="
				M350.606,393.192c-23.742,10.825-46.239,24.377-66.908,40.303"/>
		</g>
	</g>
	<g>
		<path style="fill:none;stroke:#000000;stroke-width:2;stroke-linecap:round;stroke-linejoin:round;stroke-miterlimit:10;" d="
			M462.213,198.071c4.059,16.644,6.21,34.035,6.21,51.929c0,120.632-97.792,218.423-218.424,218.423S31.576,370.632,31.576,250
			S129.368,31.576,250,31.576c14.304,0,28.056,1.249,41.592,3.874"/>
		<path style="fill:none;stroke:#000000;stroke-width:2;stroke-linecap:round;stroke-linejoin:round;stroke-miterlimit:10;" d="
			M424.956,118.888c5.64,7.415,9.817,14.201,14.487,22.316"/>
		<path style="fill:none;stroke:#000000;stroke-width:2;stroke-linecap:round;stroke-linejoin:round;stroke-miterlimit:10;" d="
			M353.069,57.375c5.882,3.154,10.914,6.016,16.458,9.678"/>
		<g>
			<path style="fill:none;stroke:#000000;stroke-width:2;stroke-linecap:round;stroke-linejoin:round;stroke-miterlimit:10;" d="
				M43.68,320.794c4.658-1.36,9.621-1.284,14.442-0.727c16.376,1.891,31.658,9.115,45.916,17.388
				c14.258,8.273,27.881,17.718,42.806,24.717c14.925,6.999,31.58,11.502,47.887,9.091c7.916-1.17,15.499-3.925,23.018-6.664
				c5.618-2.046,11.236-4.092,16.854-6.139"/>
			<path style="fill:none;stroke:#000000;stroke-width:2;stroke-linecap:round;stroke-linejoin:round;stroke-miterlimit:10;" d="
				M262.658,349.09c10.938-4.281,22.446-7.1,34.124-8.361"/>
			<path style="fill:none;stroke:#000000;stroke-width:2;stroke-linecap:round;stroke-linejoin:round;stroke-miterlimit:10;" d="
				M302.828,340.76c18.116,2.775,34.002,14.705,52.235,16.555c16.986,1.724,33.462-5.504,48.986-12.609
				c15.524-7.106,30.935-14.423,47.939-12.89"/>
		</g>
		<path style="fill:none;stroke:#000000;stroke-width:2;stroke-linecap:round;stroke-linejoin:round;stroke-miterlimit:10;" d="
			M103.192,410.511c0.934-14.142,0.061-28.403-2.593-42.326c10.153,9.713,11.901,25.054,17.997,37.713
			c0.685-10.113,2.327-20.161,4.898-29.966c2.913,10.424,5.643,20.9,8.188,31.42c2.473-8.603,5.765-16.971,9.817-24.953
			c-0.875,13.83,0.229,27.784,3.266,41.305c1.622-8.118,5.423-16.108,10.808-22.396c-2.633,11.721-2.525,24.048,0.313,35.721
			c2.698-8.007,6.611-15.603,11.564-22.448c-2.974,12.379-3.002,25.455-0.082,37.846"/>
		<path style="fill:none;stroke:#000000;stroke-width:2;stroke-linecap:round;stroke-linejoin:round;stroke-miterlimit:10;" d="
			M211.142,464.4c-0.433-9.218-1.96-18.384-4.54-27.243c4.915,5.316,9.323,11.102,13.144,17.252
			c-0.06-11.942-0.959-23.88-2.69-35.697c7.562,11.622,13.833,24.083,18.661,37.081c1.836-6.498,3.672-12.995,5.507-19.493
			c1.473,6.912,2.947,13.824,4.42,20.736c2.038-4.882,4.077-9.765,6.115-14.647c-0.565,8.464-0.024,17.001,1.605,25.325"/>
		<path style="fill:none;stroke:#000000;stroke-width:2;stroke-linecap:round;stroke-linejoin:round;stroke-miterlimit:10;" d="
			M402.029,405.654c-1.687-11.532-4.442-22.907-8.219-33.933c4.521,3.918,8.645,8.294,12.289,13.04
			c0.075-9.611,0.43-19.22,1.063-28.81c3.387,7.457,6.773,14.915,10.16,22.372c-0.029-9.602,0.991-19.206,3.037-28.587
			c1.328,9.278,3.89,18.378,7.598,26.985"/>
		<path style="fill:none;stroke:#000000;stroke-width:2;stroke-linecap:round;stroke-linejoin:round;stroke-miterlimit:10;" d="
			M69.266,340.894c1.954,5.55,3.907,11.099,5.861,16.649c0.562-6.411,1.125-12.823,1.687-19.234c2.57,7.301,5.14,14.601,7.71,21.901
			c0.85-5.477,1.53-10.981,2.038-16.5c2.12,5.371,3.842,10.898,5.148,16.522"/>
		<path style="fill:none;stroke:#000000;stroke-width:2;stroke-linecap:round;stroke-linejoin:round;stroke-miterlimit:10;" d="
			M185.354,408.906c0.739-5.604,1.156-11.25,1.25-16.902c1.831,6.848,3.903,13.631,6.211,20.333
			c0.267-8.255,1.026-16.493,2.27-24.658c1.382,8.221,3.661,16.29,6.784,24.018c0.658-7.569,1.315-15.138,1.973-22.708
			c2.728,6.492,5.457,12.983,8.185,19.475"/>
		<path style="fill:none;stroke:#000000;stroke-width:2;stroke-linecap:round;stroke-linejoin:round;stroke-miterlimit:10;" d="
			M314.081,378.34c0.273-4.101,0.847-8.182,1.714-12.2c2.438,3.881,2.306,9.035,5.036,12.716c1.548-5.727,2.736-11.552,3.555-17.428
			c1.558,5.403,2.668,10.935,3.314,16.52"/>
		<path style="fill:none;stroke:#000000;stroke-width:2;stroke-linecap:round;stroke-linejoin:round;stroke-miterlimit:10;" d="
			M370.511,313.573c3.825-2.678,8.908-3.47,13.367-2.083c4.459,1.387,8.195,4.923,9.826,9.298c0.912-4.953,4.728-9.26,9.535-10.761
			c4.808-1.501,10.396-0.131,13.964,3.423"/>
		<g>
			<g>
				<path style="fill:none;stroke:#000000;stroke-width:2;stroke-linecap:round;stroke-linejoin:round;stroke-miterlimit:10;" d="
					M32.985,223.945c12.778-6.784,29.374-2.609,40.132,7.065c10.758,9.674,16.532,23.763,19.791,37.859
					c3.002-6.987,11.798-10.184,19.221-8.533c7.423,1.651,13.469,7.145,17.826,13.378c2.636-7.582,9.995-13.598,17.769-15.596
					s16.488,0.141,22.453,5.512c2.47-6.369,7.672-12.093,13.819-15.074c6.146-2.981,13.428-3.543,19.958-1.54"/>
				<path style="fill:none;stroke:#000000;stroke-width:2;stroke-linecap:round;stroke-linejoin:round;stroke-miterlimit:10;" d="
					M425.968,235.406c5.331-1.076,11.038-0.177,15.781,2.484c4.743,2.661,8.483,7.064,10.344,12.175
					c2.558-6.484,8.673-11.43,15.548-12.578"/>
			</g>
			<path style="fill:none;stroke:#000000;stroke-width:2;stroke-linecap:round;stroke-linejoin:round;stroke-miterlimit:10;" d="
				M68.044,293.262c3.719-5.18,10.741-7.736,16.92-6.16c6.179,1.576,11.118,7.184,11.902,13.512
				c1.687-5.192,6.658-9.149,12.096-9.629c5.438-0.48,11.025,2.546,13.595,7.362"/>
			<path style="fill:none;stroke:#000000;stroke-width:2;stroke-linecap:round;stroke-linejoin:round;stroke-miterlimit:10;" d="
				M157.104,335.221c3.146-5.046,8.518-8.967,14.46-9.202c5.941-0.234,12.094,3.933,13.038,9.804
				c-0.066-6.178,4.011-12.193,9.773-14.421c5.763-2.228,12.825-0.52,16.932,4.095"/>
			<path style="fill:none;stroke:#000000;stroke-width:2;stroke-linecap:round;stroke-linejoin:round;stroke-miterlimit:10;" d="
				M171.78,235.956h-59.595c0.253-3.921,1.525-7.992,4.568-10.477c3.043-2.485,8.015-2.79,10.707,0.072
				c-0.332-8.023,7.198-15.472,15.218-15.053c5.157,0.27,9.852,3.314,13.24,7.211c3.389,3.897,5.667,8.613,7.905,13.267
				c1.548-1.013,3.786-0.741,5.339,0.265C170.714,232.246,171.016,234.272,171.78,235.956z"/>
			<path style="fill:none;stroke:#000000;stroke-width:2;stroke-linecap:round;stroke-linejoin:round;stroke-miterlimit:10;" d="
				M203.087,100.408h-35.507c-0.71-3.572,1.584-7.562,4.527-9.707s7.144-2.404,10.327-0.634c0.354,0.197,0.749,0.424,1.139,0.313
				c0.447-0.127,0.654-0.63,0.799-1.071c1.169-3.538,2.407-7.199,4.958-9.916c2.551-2.717,6.813-4.209,10.102-2.456"/>
		</g>
	</g>
	<g>
		<path style="fill:none;stroke:#000000;stroke-width:2;stroke-linecap:round;stroke-linejoin:round;stroke-miterlimit:10;" d="
			M108.194,84.28c24.375,11.486,34.824,40.557,23.338,64.933c-11.486,24.375-40.558,34.824-64.933,23.338
			c-6.094-2.872-11.317-6.842-15.545-11.564"/>
		<path style="fill:none;stroke:#000000;stroke-width:2;stroke-linecap:round;stroke-linejoin:round;stroke-miterlimit:10;" d="
			M108.194,84.28c0,0,20.272-13.266,23.654-9.81s-7.761,20.908-7.761,20.908s24.618-2.891,26.75,2.329
			c2.133,5.22-16.252,18.106-16.252,18.106s25.073,8.747,24.338,13.526c-0.735,4.779-23.19,8.578-23.19,8.578
			s18.231,16.559,17.141,19.154c-1.09,2.595-25.292-0.954-25.292-0.954s9.27,20.936,6.645,24.159
			c-2.625,3.222-23.957-7.77-23.957-7.77s0.171,23.221-4.344,24.886s-17.358-19.245-17.358-19.245s-11.472,18.841-15.659,19.118
			c-4.187,0.277-6.311-24.715-6.311-24.715s-17.248,16.603-19.947,13.943c-2.699-2.66,4.402-25.507,4.402-25.507"/>
	</g>
</g>
</svg>
