<?xml version="1.0" encoding="utf-8"?>
<!-- Generator: Adobe Illustrator 27.5.0, SVG Export Plug-In . SVG Version: 6.00 Build 0)  -->
<svg version="1.1" xmlns="http://www.w3.org/2000/svg" xmlns:xlink="http://www.w3.org/1999/xlink" x="0px" y="0px"
	 viewBox="0 0 500 500" style="enable-background:new 0 0 500 500;" xml:space="preserve">
<g id="BACKGROUND">
	<rect style="fill:#FFFFFF;" width="500" height="500"/>
</g>
<g id="OBJECTS">
	<g>
		<g>
			<path style="fill:none;" d="M168.484,386.858c1.288,1.76,2.461,3.488,3.531,5.185c3.481-2.493,7.622-5.192,12.207-7.692
				c-2.821-4.704-4.714-9.944-5.545-15.436c-0.312,0.812-0.62,1.623-0.919,2.432c-0.034,0.093-0.07,0.188-0.103,0.279
				c-0.355,0.966-0.702,1.93-1.037,2.888c-0.981,2.805-3.4,4.748-6.189,5.19c-0.399,0.063-0.805,0.096-1.215,0.096
				c-0.41,0-0.823-0.032-1.238-0.099c-0.227-0.036-0.443-0.085-0.667-0.125v6.204C167.753,386.068,168.161,386.416,168.484,386.858z
				"/>
			<polygon points="146.987,395.57 146.987,365.856 145.502,366.811 145.502,395.578 			"/>
			<path d="M167.309,385.78v-6.204c-0.5-0.089-1.002-0.175-1.486-0.279v5.872C166.358,385.279,166.855,385.487,167.309,385.78z"/>
			<path d="M133.994,404.59v-60.548c4.777-0.493,9.076-3.206,11.508-7.271v7.938c0.491-0.664,0.984-1.329,1.486-1.996v-9.315
				c0.051-0.172,0.103-0.349,0.141-0.495c2.019,0.892,3.995,1.556,5.924,2.017c0.343-0.428,0.684-0.855,1.032-1.285
				c-2.312-0.489-4.707-1.306-7.171-2.461l-0.9-0.422l-0.15,0.984c-0.001,0.005-0.089,0.575-0.357,1.443
				c-1.968,6.366-8.528,10.366-15.262,9.293c-3.532-0.558-8.46-2.024-11.885-5.834l-0.552-0.615l-0.552,0.615
				c-3.425,3.81-8.354,5.276-11.885,5.834c-6.735,1.067-13.293-2.928-15.261-9.293c-0.269-0.868-0.357-1.438-0.358-1.443
				l-0.15-0.984l-0.9,0.423c-4.804,2.252-9.351,3.241-13.514,2.955c-3.739-0.263-6.565-3.414-6.434-7.174l0.896-25.693
				c5.121,7.592,24.437,13.087,48.158,13.087c23.721,0,43.037-5.496,48.158-13.088l0.616,17.667c0.476-0.535,0.949-1.07,1.43-1.607
				l-0.703-20.15v-0.692h-0.024v-0.001h-0.027c-0.424-3.603-3.914-6.886-9.626-9.551c-0.301-1.999-0.752-3.935-1.375-5.782
				c-1.197-3.544-3.841-6.489-7.255-8.08c-3.411-1.589-7.195-1.72-10.654-0.366c-4.363,1.707-7.868,4.658-10.569,7.729
				c-3.213-0.219-6.546-0.334-9.971-0.334c-1.88,0-3.73,0.037-5.55,0.105c-2.673-2.987-6.109-5.835-10.363-7.499
				c-3.458-1.354-7.242-1.223-10.654,0.366c-3.413,1.591-6.058,4.536-7.255,8.08c-0.414,1.227-0.732,2.503-1.005,3.8
				c-8.634,2.931-14.087,6.975-14.624,11.533H68.33l0,0.001h-0.027v0.761l-1.035,29.661c-0.055,1.583,0.33,3.072,1.035,4.362v58.62
				c0,5.627,7.405,10.671,20.321,13.885v0.008l0.567,0.138c0.994,0.242,2.014,0.471,3.06,0.686c3.136,0.645,6.495,1.168,10.026,1.56
				c0.004,0,0.008,0.001,0.012,0.001l0.814,0.091v-0.011c4.746,0.504,9.683,0.769,14.702,0.769c5.02,0,9.958-0.265,14.703-0.769
				v0.011l0.825-0.092c1.27-0.141,2.514-0.302,3.74-0.476c0.549-0.078,1.086-0.164,1.626-0.249
				c-0.095-0.501-0.183-0.988-0.262-1.463C136.986,404.199,135.512,404.411,133.994,404.59z M138.889,274.081
				c3.076-1.204,6.444-1.086,9.485,0.33c3.047,1.421,5.407,4.048,6.475,7.21c1.111,3.291,1.692,6.868,1.726,10.633
				c0.059,6.45-4.668,11.825-10.996,12.502c-7.133,0.769-14.333-1.033-21.439-5.332c0.506-0.763,0.804-1.675,0.804-2.656v-3.371
				c11.286-1.395,18.34-4.466,20.947-9.145c0.996-1.787,0.911-3.861-0.228-5.547c-1.148-1.7-3.144-2.599-5.197-2.336
				c-7.718,0.974-13.913,10.112-16.31,14.175c-0.225-0.344-0.497-0.649-0.799-0.925
				C125.532,285.455,130.675,277.295,138.889,274.081z M125.101,291.887c2.005-3.48,8.178-13.112,15.55-14.043
				c0.18-0.022,0.358-0.034,0.533-0.034c1.314,0,2.502,0.623,3.248,1.727c0.818,1.212,0.878,2.704,0.16,3.991
				C142.969,286.443,138.255,290.207,125.101,291.887z M123.458,293.171v3.597c0,1.839-1.497,3.336-3.337,3.336
				c-1.84,0-3.336-1.497-3.336-3.336v-3.597c0-1.84,1.497-3.336,3.336-3.336C121.961,289.836,123.458,291.332,123.458,293.171z
				 M117.807,281.578c2.989,0,5.921,0.099,8.776,0.279c-2.041,2.565-3.527,5.087-4.486,6.927c-0.605-0.273-1.271-0.434-1.976-0.434
				c-0.706,0-1.372,0.161-1.976,0.435c-0.985-1.891-2.527-4.501-4.655-7.137C114.915,281.604,116.354,281.578,117.807,281.578z
				 M85.393,281.621c1.068-3.162,3.428-5.789,6.475-7.21c1.649-0.768,3.396-1.155,5.139-1.155c1.47,0,2.938,0.275,4.345,0.825
				c8.214,3.214,13.357,11.374,15.533,15.54c-0.302,0.276-0.575,0.581-0.799,0.925c-2.397-4.063-8.592-13.202-16.31-14.176
				c-2.054-0.261-4.049,0.635-5.197,2.336c-1.138,1.686-1.224,3.759-0.228,5.547c2.607,4.679,9.661,7.75,20.948,9.145v3.371
				c0,0.982,0.298,1.893,0.804,2.656c-7.106,4.299-14.31,6.103-21.439,5.332c-6.328-0.677-11.055-6.052-10.997-12.502
				C83.701,288.489,84.282,284.912,85.393,281.621z M115.14,291.887c-13.153-1.68-17.867-5.444-19.49-8.358
				c-0.717-1.287-0.657-2.779,0.161-3.991c0.746-1.104,1.934-1.727,3.248-1.727c0.176,0,0.354,0.012,0.533,0.034
				C106.956,278.774,113.133,288.406,115.14,291.887z M82.639,286.697c-0.283,1.797-0.44,3.647-0.457,5.543
				c-0.066,7.218,5.233,13.234,12.324,13.993c1.124,0.12,2.248,0.18,3.373,0.18c6.441,0,12.9-1.976,19.265-5.883
				c0.823,0.652,1.849,1.059,2.978,1.059c1.129,0,2.155-0.406,2.978-1.059c6.365,3.907,12.822,5.883,19.265,5.883
				c1.125,0,2.25-0.06,3.373-0.18c7.091-0.76,12.39-6.776,12.324-13.993c-0.011-1.193-0.092-2.361-0.208-3.516
				c5.015,2.465,7.972,5.391,7.972,8.495c0,8.479-21.989,15.642-48.017,15.642c-26.028,0-48.017-7.163-48.017-15.642
				C69.79,293.213,74.708,289.5,82.639,286.697z M88.625,402.235c-11.807-2.995-18.836-7.581-18.836-12.352v-56.655
				c1.376,1.349,3.216,2.235,5.293,2.381c4.17,0.293,8.677-0.617,13.404-2.707c0.037,0.144,0.089,0.318,0.138,0.487V402.235z
				 M101.618,404.59c-4.114-0.483-7.978-1.15-11.508-1.983v-65.821c2.432,4.06,6.736,6.759,11.508,7.252V404.59z M132.508,404.749
				c-9.489,1.02-19.912,1.02-29.405,0v-60.624c0.03,0,0.059,0.004,0.089,0.004c0.796,0,1.602-0.062,2.409-0.19
				c3.586-0.568,8.533-2.024,12.206-5.724c3.673,3.7,8.619,5.157,12.205,5.724c0.837,0.133,1.671,0.184,2.496,0.179V404.749z"/>
		</g>
		<g>
			<path d="M369.502,360.769v31.978c0.471,0.188,0.92,0.446,1.325,0.782c0.057,0.047,0.106,0.1,0.16,0.15v-32.494
				C370.495,361.061,370,360.924,369.502,360.769z"/>
			<path d="M439.538,334.645c1.107-5.864,0.795-11.797-0.961-17.649c-1.303-4.339-4.509-7.709-8.795-9.245
				c-4.199-1.504-8.711-0.959-12.376,1.499c-5.962,4-10.216,10.921-12.308,14.887h-0.367c-0.385,0-0.753,0.062-1.111,0.152
				c-2.062-3.94-6.349-10.987-12.387-15.039c-3.664-2.457-8.175-3.003-12.376-1.499c-4.286,1.536-7.492,4.905-8.795,9.245
				c-1.756,5.852-2.068,11.785-0.961,17.649c-1.153,0.253-2.121,0.998-2.678,2.002c0.877-0.278,1.794-0.469,2.751-0.536
				c0.068-0.005,0.137,0,0.205-0.004c0.191-0.045,0.387-0.075,0.592-0.075h16.007h7.926h6.239h3.434h1.486h6.159h3.515h7.927h16.007
				c1.418,0,2.571,1.153,2.571,2.571v16.591c0,1.418-1.153,2.571-2.571,2.571h-52.495c-0.051,0.505-0.111,0.999-0.178,1.486h7.907
				v38.679h-7.926V359.38c-0.37,2.612-0.947,4.934-1.486,6.721v31.827h-9.754c-0.805,0-1.548-0.261-2.159-0.694
				c0,0.086,0.007,0.171,0.003,0.258c-0.022,0.474-0.057,0.932-0.086,1.397c0.683,0.326,1.437,0.524,2.243,0.524h9.754h10.897
				h17.861h10.898h9.754c2.887,0,5.236-2.349,5.236-5.236v-34.976c2.014-0.236,3.587-1.932,3.587-4.009v-16.591
				C442.726,336.664,441.358,335.044,439.538,334.645z M400.634,326.703c-1.23-3.076-5.723-13.004-12.811-14.006
				c-1.839-0.266-3.596,0.432-4.703,1.852c-1.08,1.386-1.32,3.206-0.641,4.871c1.795,4.406,7.741,7.486,17.672,9.153l0.008,0.001
				c-0.002,0.052-0.015,0.1-0.015,0.151v5.82h-4.753h-10.897h-13.914c-1.103-5.686-0.797-11.443,0.908-17.123
				c1.165-3.883,4.035-6.898,7.872-8.274c3.751-1.344,7.779-0.859,11.047,1.335c5.658,3.796,9.805,10.568,11.834,14.399
				C401.551,325.331,401.001,325.962,400.634,326.703z M399.095,326.876c-10.676-2.006-14.191-5.44-15.241-8.017
				c-0.475-1.166-0.311-2.436,0.437-3.397c0.667-0.856,1.679-1.335,2.779-1.335c0.18,0,0.362,0.014,0.544,0.039
				C393.589,315.012,397.74,323.645,399.095,326.876z M409.736,334.546h-4.673h-1.486h-1.949v-5.82c0-1.711,1.393-3.103,3.103-3.103
				h1.901c1.711,0,3.103,1.393,3.103,3.103V334.546z M410.061,325.706c1.724-3.772,5.608-10.782,10.965-11.54
				c0.183-0.025,0.365-0.039,0.544-0.039c1.1,0,2.111,0.479,2.779,1.335c0.748,0.96,0.912,2.23,0.437,3.397
				c-1.011,2.481-4.324,5.751-14.089,7.782C410.523,326.302,410.311,325.99,410.061,325.706z M438.062,334.546h-13.914h-10.898
				h-2.029v-5.82c0-0.226-0.035-0.443-0.067-0.661c8.328-1.75,13.38-4.65,15.007-8.645c0.679-1.665,0.439-3.486-0.641-4.871
				c-1.107-1.42-2.866-2.118-4.703-1.852c-5.938,0.84-10.056,7.948-11.96,12.041c-0.617-0.346-1.315-0.558-2.065-0.584
				c2.147-3.915,6.13-10.106,11.441-13.669c3.266-2.193,7.293-2.68,11.047-1.335c3.838,1.375,6.707,4.391,7.872,8.274
				C438.859,323.103,439.165,328.86,438.062,334.546z M413.251,397.928H395.39v-38.679h17.861V397.928z M422.663,397.928h-7.927
				v-38.679h7.927V397.928z M437.653,394.178c0,2.068-1.683,3.75-3.751,3.75h-9.754v-38.679h13.505V394.178z"/>
		</g>
	</g>
	<g>
		<path style="fill:none;" d="M378.568,220.59c-0.452-0.898-0.479-1.94-0.074-2.859l1.175-2.673
			c-7.334-1.566-13.921-5.022-19.28-9.798c-2.688,14.983-14.273,27.128-29.358,30.329l0.996,2.29
			c0.367,0.843,0.338,1.796-0.078,2.615c-0.416,0.819-1.169,1.403-2.065,1.604c-0.903,0.202-1.814,0.353-2.729,0.457l16.697,32.189
			c2.667-1.752,5.86-2.942,9.632-2.965c0.035,0,0.07,0,0.104,0c3.505,0,6.991,1.093,10.075,3.086l20.247-51.983
			c-1.036-0.12-2.068-0.295-3.092-0.528C379.839,222.13,379.019,221.488,378.568,220.59z"/>
		<path d="M301.4,197.467l8.757,7.571c0.329,0.284,0.497,0.712,0.45,1.145l-1.272,11.507c-0.118,1.07,0.371,2.094,1.279,2.673
			c0.463,0.297,0.987,0.445,1.511,0.445c0.501,0,1.003-0.136,1.453-0.408l9.906-5.99c0.373-0.225,0.831-0.252,1.228-0.073
			l10.55,4.765c0.98,0.443,2.105,0.293,2.937-0.39c0.832-0.683,1.196-1.759,0.952-2.808l-2.635-11.273
			c-0.1-0.424,0.016-0.868,0.308-1.19l7.792-8.561c0.724-0.796,0.93-1.913,0.538-2.915c-0.394-1.002-1.304-1.68-2.376-1.771
			l-11.535-0.977c-0.433-0.036-0.821-0.284-1.037-0.662l-5.735-10.056c-0.532-0.934-1.539-1.474-2.605-1.411
			c-1.074,0.064-2.002,0.72-2.42,1.712l-4.493,10.668c-0.169,0.401-0.524,0.693-0.951,0.781l-11.336,2.347
			c-1.054,0.218-1.877,1.001-2.148,2.042C300.247,195.679,300.585,196.763,301.4,197.467z M321.954,178.569
			c0.028-0.002,0.056-0.002,0.084-0.002c0.479,0,0.901,0.245,1.142,0.667l5.735,10.056c0.457,0.803,1.28,1.329,2.201,1.407
			l11.535,0.977c0.513,0.043,0.931,0.355,1.119,0.834c0.188,0.479,0.093,0.991-0.253,1.372l-7.792,8.562
			c-0.622,0.684-0.866,1.629-0.657,2.528l2.635,11.272c0.117,0.501-0.05,0.995-0.448,1.322c-0.396,0.327-0.914,0.395-1.383,0.183
			l-10.549-4.764c-0.843-0.382-1.819-0.324-2.608,0.156l-9.906,5.989c-0.441,0.267-0.962,0.259-1.396-0.017
			c-0.433-0.277-0.659-0.748-0.603-1.259l1.272-11.507c0.102-0.918-0.255-1.827-0.954-2.431l-8.757-7.571
			c-0.389-0.337-0.544-0.835-0.415-1.332c0.13-0.498,0.508-0.857,1.012-0.961l11.335-2.347c0.905-0.187,1.66-0.807,2.019-1.659
			l4.493-10.668C321.014,178.901,321.44,178.6,321.954,178.569z"/>
		<path d="M391.253,131.264c-22.628-1.455-42.302,15.221-44.837,37.508c-7.012-5.479-15.962-8.533-25.526-7.958
			c-20.825,1.247-36.754,19.204-35.507,40.03c1.132,18.908,16.04,33.773,34.363,35.418l-0.717,2.396
			c-0.263,0.88-0.121,1.823,0.39,2.586c0.512,0.764,1.329,1.254,2.243,1.346c0.865,0.087,1.73,0.131,2.596,0.131
			c0.431,0,0.861-0.014,1.291-0.036l17.079,32.924c-4.783,3.663-7.662,9.05-8.973,12c-0.451,1.015-0.462,2.113-0.117,3.092
			c-2.563,0.41-5.292,0.566-8.187,0.445c-1.738-0.068-3.535-0.232-5.389-0.49c-5.562-0.775-11.631-2.402-18.114-4.86
			c-11.097-4.218-19.8-9.551-21.124-10.378c-3.095-5.635-5.388-11.724-6.785-18.059c-0.025-0.115-0.05-0.231-0.075-0.347
			c-0.161-0.749-0.308-1.502-0.444-2.258c-0.033-0.184-0.067-0.367-0.098-0.551c-0.121-0.709-0.229-1.421-0.328-2.134
			c-0.027-0.198-0.059-0.395-0.085-0.593c-0.116-0.889-0.216-1.781-0.297-2.676l-2.811-31.36l-0.004-0.001l-2.79-31.084
			c2.454-13.616,2.447-27.158,1.939-36.574c-0.248-4.591-1.049-9.051-2.333-13.313c6.21,1.248,11.901,1.886,17.041,1.886
			c10.509,0,18.755-2.608,24.645-7.818c5.003-4.426,12.901-15.169,9.582-37.39c-0.74-4.954-2.785-9.365-5.914-12.755
			c-3.657-3.962-8.298-6.069-13.792-6.263c-6.22-0.221-12.313,2.134-17.197,6.623c-7.833,7.201-16.25,13.303-23.387,17.966
			l3.005-11.525c6.755-0.562,12.743-5.305,14.548-12.227c1.107-4.246,0.495-8.668-1.724-12.453c-2.22-3.785-5.78-6.479-10.025-7.586
			c-8.773-2.288-17.754,2.986-20.038,11.75c-1.762,6.756,0.978,13.632,6.335,17.482l-4.004,15.353l-0.572-1.439l0.003-0.002
			l-2.281-5.734l-0.001,0.001l-4.019-10.114l0,0l-0.088-0.221l-8.627-21.709l-27.586,33.189V76.314
			c6.093-2.156,10.477-7.96,10.477-14.782c0-8.652-7.039-15.691-15.691-15.691c-8.652,0-15.691,7.039-15.691,15.691
			c0,6.661,4.179,12.351,10.047,14.624v10.59c-6.276-4.721-13.16-10.004-18.965-14.712c-0.305-0.241-7.557-5.873-16.413-4.274
			c-5.684,1.027-10.495,4.971-12.87,10.552c-2.036,4.784-5.382,14.121-4.913,22.898c0.517,9.711,7.986,17.816,17.76,19.271
			c3.048,0.454,7.285,0.962,12.392,1.269c-12.542,14.164-22.862,28.989-28.392,37.382c-7.774,11.8-7.843,26.503-0.946,37.916
			c0.023,0.038,0.044,0.076,0.067,0.114c0.388,0.636,0.798,1.261,1.229,1.875c0.074,0.106,0.152,0.211,0.227,0.316
			c0.387,0.539,0.789,1.07,1.21,1.59c0.061,0.075,0.118,0.152,0.179,0.227c0.443,0.538,0.908,1.063,1.387,1.579
			c0.146,0.158,0.295,0.314,0.445,0.469c0.434,0.45,0.878,0.893,1.34,1.324c0.065,0.061,0.124,0.127,0.19,0.188
			c1.988,1.828,4.052,3.421,6.066,4.797c7.172,4.902,13.725,7.039,14.057,7.145c15.149,5.388,29.942,8.444,44.174,9.14l0.528,28.123
			l-0.002,0.001l0.16,8.395c0.016,0.86,0.014,1.719-0.003,2.577c-0.005,0.261-0.019,0.52-0.027,0.781
			c-0.018,0.599-0.04,1.199-0.074,1.797c-0.017,0.301-0.042,0.602-0.063,0.902c-0.04,0.563-0.083,1.126-0.137,1.688
			c-0.029,0.298-0.062,0.596-0.095,0.894c-0.063,0.576-0.132,1.15-0.21,1.724c-0.037,0.27-0.075,0.541-0.115,0.811
			c-0.093,0.624-0.194,1.246-0.304,1.868c-0.038,0.212-0.074,0.425-0.114,0.637c-0.004,0.023-0.01,0.047-0.014,0.07
			c-4.071,3.599-18.621,16.701-34.918,34.157l-0.001-0.002l-0.572,0.614c-8.41,9.042-16.068,17.938-22.761,26.444l-0.515,0.656
			l0.005,0.003c-1.044,1.335-2.07,2.668-3.078,3.998l-0.007-0.008l-0.533,0.709c-0.632,0.84-1.254,1.678-1.869,2.512
			c-0.007,0.009-0.013,0.017-0.019,0.026c-0.852,1.156-1.68,2.301-2.495,3.44c-0.223,0.311-0.444,0.621-0.664,0.932
			c-0.808,1.139-1.604,2.27-2.368,3.382c-1.714,2.51-2.167,5.692-1.212,8.515c0.843,2.488,2.233,4.699,4.13,6.571l0.423,0.417
			l6.001-3.857l-0.711,6.4l0.298,0.255c0.313,0.269,7.809,6.602,19.428,8.458c0.415,0.067,0.829,0.099,1.238,0.099
			c0.411,0,0.817-0.033,1.215-0.096c2.79-0.442,5.209-2.384,6.189-5.19c0.335-0.958,0.681-1.922,1.037-2.888
			c0.034-0.091,0.069-0.186,0.103-0.279c0.299-0.809,0.607-1.62,0.919-2.432c0.831,5.492,2.724,10.731,5.545,15.436
			c-4.585,2.5-8.727,5.199-12.207,7.692c-1.07-1.698-2.243-3.425-3.531-5.185c-0.795-1.087-2.023-1.742-3.369-1.797
			c-1.337-0.063-2.617,0.494-3.496,1.508l-7.772,8.97l-11.567,0.054c-1.247,0.006-2.437,0.544-3.264,1.475
			c-0.824,0.928-1.217,2.17-1.075,3.406c0.732,6.411,3.028,18.261,10.178,25.598c3.588,3.681,8.241,5.603,13.005,5.603
			c2.763,0,5.564-0.647,8.215-1.972c1.069-0.534,2.056-1.16,2.976-1.85l0.226-0.109c29.3-14.153,51.49-17.958,53.346-18.258
			c0.877,0.214,1.76,0.422,2.655,0.621c8.424,1.871,16.862,2.809,25.245,2.809c6.84,0,13.643-0.624,20.37-1.872
			c1.506-0.279,2.98-0.595,4.436-0.931c2.429,0.482,39.178,7.862,57.023,16.285c1.52,1.784,3.4,3.306,5.592,4.456
			c2.758,1.447,5.67,2.159,8.537,2.159c4.218,0,8.337-1.542,11.716-4.547c6.689-5.949,10.43-16.37,11.121-30.971
			c0.073-1.535-0.568-2.979-1.754-3.963c-1.193-0.989-2.739-1.353-4.247-0.994l-10.292,2.444l-7.512-8.605
			c-1.05-1.202-2.567-1.8-4.148-1.648c-1.588,0.156-2.957,1.039-3.753,2.424c-0.43,0.746-0.907,1.602-1.408,2.533
			c-4.738-2.88-11.335-6.493-18.451-9.197c0.263-0.594,0.511-1.195,0.747-1.801c0.049-0.127,0.098-0.254,0.146-0.381
			c0.273-0.723,0.526-1.454,0.76-2.192c0.043-0.135,0.087-0.27,0.128-0.406c0.077-0.25,0.164-0.495,0.236-0.747
			c0.841,0.63,1.773,1.174,2.814,1.61c1.596,0.669,3.306,1,5.011,1c2.14,0,4.274-0.522,6.166-1.555
			c6.7-3.658,6.441-11.316,6.019-14.44c-0.104-0.762-0.304-1.581-0.613-2.504c-0.864-2.577-1.318-5.037-1.351-7.314
			c-0.093-6.328,4.67-11.948,10.844-12.795c4.241-0.584,7.348,1.148,8.542,1.965c-1.241,1.717-2.011,3.779-2.117,6.01
			c-0.007,0.142-0.012,0.285-0.014,0.432c-0.094,5.268,3.129,10.096,8.209,12.303c1.877,0.814,3.751,1.411,5.573,1.774
			c2.218,0.441,4.141,1.258,5.717,2.43c2.152,1.601,3.478,3.552,3.941,5.801l0.475,2.305l0.934-2.16
			c0.212-0.489,5.153-12.109,2.299-22.86c-1.245-4.689-4.664-8.391-9.149-9.904c-2.357-0.794-4.765-1.111-7.157-0.944
			c-3.073,0.216-5.801,1.59-7.756,3.663c-1.313-0.93-4.815-2.954-9.697-2.287c-7.02,0.963-12.234,7.105-12.129,14.288
			c0.035,2.431,0.515,5.044,1.428,7.765c0.278,0.833,0.458,1.563,0.549,2.231c0.381,2.818,0.631,9.721-5.259,12.937
			c-3.007,1.641-6.705,1.825-9.891,0.489c-1.13-0.474-2.121-1.083-2.983-1.813c0.028-0.112,0.056-0.224,0.082-0.337
			c0.175-0.738,0.329-1.482,0.465-2.231c0.029-0.158,0.063-0.315,0.09-0.473c0.127-0.741,0.23-1.488,0.319-2.239
			c0.02-0.167,0.047-0.333,0.065-0.501c0.081-0.76,0.137-1.525,0.178-2.292c0.009-0.157,0.026-0.312,0.033-0.469
			c0.039-0.907,0.053-1.818,0.035-2.733c-0.006-0.31-0.033-0.621-0.046-0.931c-0.023-0.563-0.038-1.125-0.083-1.69l-0.014-0.174
			c-0.005-0.054-0.008-0.108-0.013-0.162l-0.033-0.416l-0.016,0.002c-0.076-0.79-0.159-1.581-0.279-2.372
			c-1.389-9.182-3.752-17.596-6.711-25.249c0.301,0.081,0.6,0.169,0.902,0.247l0,0.015l0.57,0.14
			c4.088,1.006,8.185,1.682,12.179,2.009c1.17,0.097,2.335,0.145,3.491,0.145c1.129,0,2.248-0.054,3.356-0.145
			c0.145-0.012,0.291-0.017,0.435-0.03c0.444-0.041,0.884-0.099,1.324-0.154c0.179-0.023,0.361-0.038,0.54-0.063
			c0.389-0.055,0.773-0.125,1.158-0.191c0.226-0.039,0.455-0.07,0.68-0.113c0.336-0.064,0.665-0.142,0.997-0.215
			c0.269-0.059,0.541-0.111,0.808-0.176c0.296-0.072,0.585-0.157,0.878-0.235c0.297-0.08,0.596-0.154,0.89-0.241
			c0.261-0.077,0.516-0.167,0.774-0.25c0.318-0.102,0.639-0.2,0.952-0.311c0.235-0.083,0.463-0.178,0.695-0.265
			c0.31-0.118,0.624-0.229,0.93-0.355l0.155-0.059c0.066-0.027,0.127-0.058,0.192-0.085l0.229-0.095l0-0.007
			c15.587-6.752,18.799-20.898,19.178-22.899c3.355-3.528,5.325-8.356,5.387-13.45c0.087-7.214-3.33-12.554-6.213-15.763
			c-0.951-1.059-1.985-2.006-3.081-2.833l20.534-52.72c0.592,0.037,1.185,0.059,1.779,0.059c0.93,0,1.862-0.046,2.792-0.135
			c1-0.097,1.896-0.63,2.458-1.463c0.562-0.833,0.72-1.863,0.437-2.826l-0.828-2.806c20.595-1.712,37.432-18.328,38.787-39.555
			C432.367,152.952,414.591,132.753,391.253,131.264z M375.856,338.463c4.011,1.353,7.072,4.672,8.189,8.877
			c2.051,7.728-0.232,16.188-1.498,19.927c-0.781-1.734-2.062-3.271-3.83-4.585c-1.753-1.305-3.877-2.212-6.312-2.695
			c-1.718-0.342-3.491-0.908-5.271-1.68c-4.527-1.966-7.398-6.25-7.315-10.911c0.003-0.131,0.006-0.26,0.013-0.389v-0.001
			c0.239-5.005,4.3-9.051,9.448-9.413c0.379-0.026,0.758-0.04,1.138-0.04C372.236,337.552,374.061,337.857,375.856,338.463z
			 M429.396,176.196c-1.44,22.518-20.952,39.675-43.45,38.236c-22.521-1.437-39.673-20.928-38.237-43.449
			c1.382-21.638,19.428-38.32,40.816-38.32c0.872,0,1.751,0.027,2.634,0.084C413.679,134.183,430.832,153.675,429.396,176.196z
			 M391.249,220.647c-0.313,0.464-0.812,0.762-1.369,0.815c-2.926,0.284-5.863,0.097-8.731-0.557
			c-0.545-0.124-1.003-0.482-1.254-0.982c-0.251-0.501-0.267-1.081-0.042-1.594l1.311-2.982c1.534,0.27,3.096,0.466,4.687,0.568
			c0.916,0.059,1.824,0.087,2.729,0.087c0.668,0,1.332-0.017,1.993-0.048l0.92,3.119
			C391.652,219.609,391.563,220.183,391.249,220.647z M320.653,240.417c-0.264-0.394-0.338-0.88-0.201-1.334l0.812-2.711
			c0.618,0.03,1.24,0.046,1.864,0.046c0.756,0,1.52-0.023,2.285-0.069c1.397-0.084,2.771-0.248,4.12-0.478l1.131,2.6
			c0.189,0.435,0.174,0.927-0.041,1.35c-0.215,0.422-0.604,0.724-1.066,0.827c-2.546,0.57-5.153,0.725-7.749,0.464
			C321.338,241.064,320.916,240.811,320.653,240.417z M320.979,162.296c0.736-0.044,1.467-0.066,2.195-0.066
			c8.7,0,16.767,3.113,23.082,8.323c-0.008,0.112-0.023,0.222-0.03,0.335c-0.823,12.889,4.238,24.813,12.859,33.164
			c-2.521,16.583-16.358,29.773-33.761,30.816c-19.996,1.195-37.26-14.105-38.458-34.113
			C285.668,180.746,300.971,163.494,320.979,162.296z M319.921,330.218c0.371-7.46,6.583-13.433,14.114-13.433
			c7.383,0,13.465,5.639,14.07,12.932c-5.076,2.015-10.883,2.819-16.821,2.332C327.558,331.743,323.737,331.127,319.921,330.218z
			 M349.522,329.114c-0.891-7.825-7.491-13.815-15.486-13.815c-8.219,0-14.998,6.442-15.561,14.542
			c-0.549-0.143-1.095-0.293-1.639-0.448c-1.325-3.278-2.759-6.408-4.27-9.395c-0.139-0.276-0.284-0.55-0.425-0.825
			c-0.246-0.477-0.492-0.952-0.741-1.421c-0.213-0.402-0.431-0.802-0.649-1.202c-0.18-0.33-0.361-0.66-0.543-0.986
			c-0.259-0.464-0.521-0.928-0.785-1.389c-0.137-0.239-0.275-0.476-0.413-0.713c-0.301-0.518-0.604-1.034-0.914-1.548
			c-0.061-0.102-0.124-0.202-0.186-0.304c-1.055-1.742-2.155-3.463-3.298-5.162c-0.114-0.169-0.228-0.34-0.342-0.509
			c-0.305-0.449-0.613-0.895-0.925-1.341c-0.19-0.272-0.381-0.542-0.571-0.811c-0.268-0.377-0.535-0.755-0.807-1.13
			c-0.462-0.637-0.924-1.264-1.387-1.879c-0.094-0.125-0.191-0.249-0.285-0.373c-0.473-0.624-0.946-1.235-1.418-1.837
			c-0.073-0.092-0.145-0.184-0.218-0.276c-2.713-3.434-5.408-6.504-7.963-9.195c-3.198-3.369-6.021-7.073-8.436-11.029
			c3.522,2.044,10.413,5.788,18.649,8.955c0.83,6.794,6.506,11.865,13.411,11.865c4.599,0,8.924-2.387,11.404-6.251
			c3.044,0.104,5.926-0.082,8.624-0.559c0.187,0.21,0.389,0.408,0.623,0.582l7.887,5.874l-1.786,9.825
			c-0.389,2.135,0.964,4.241,3.08,4.793c3.07,0.802,5.846,1.137,8.346,1.137c6.367-0.001,10.929-2.178,13.901-4.362
			c0.155-0.114,0.301-0.236,0.452-0.354C365.533,313.974,361.367,323.76,349.522,329.114z M342.161,387.889
			c0.555-0.963,1.508-1.578,2.612-1.686c1.108-0.112,2.154,0.31,2.883,1.146l8.102,9.281l11.165-2.651
			c1.048-0.249,2.124,0.005,2.955,0.693c0.824,0.684,1.269,1.687,1.219,2.75c-0.671,14.187-4.246,24.257-10.624,29.931
			c-5.202,4.629-12.318,5.467-18.576,2.184c-6.345-3.329-9.885-10.024-9.019-17.056C334.034,403.1,339.19,393.047,342.161,387.889z
			 M331.405,412.299c-0.516,4.191,0.413,8.266,2.484,11.694c-15.881-6.837-42.762-12.788-51.949-14.712
			c4.729-1.266,9.163-2.835,13.236-4.701c0.005-0.002,0.01-0.005,0.015-0.008l0.371-0.169l0.001-0.013
			c4.91-2.276,9.416-5.016,13.383-8.163l0.002-0.002c0.065-0.052,0.123-0.109,0.188-0.161l0.306-0.252
			c0.172-0.142,0.332-0.295,0.501-0.44c0.456-0.389,0.913-0.777,1.35-1.184c0.267-0.249,0.519-0.511,0.78-0.766
			c0.359-0.353,0.727-0.7,1.072-1.065c0.605-0.638,1.188-1.294,1.748-1.967c0.039-0.047,0.075-0.097,0.114-0.145
			c0.539-0.653,1.057-1.321,1.555-2.005c0.071-0.097,0.135-0.199,0.205-0.297c0.458-0.641,0.901-1.294,1.322-1.96
			c0.07-0.111,0.135-0.225,0.204-0.336c0.41-0.661,0.802-1.332,1.175-2.015c0.064-0.117,0.124-0.237,0.187-0.355
			c0.254-0.477,0.512-0.952,0.748-1.438c7.09,2.684,13.669,6.294,18.369,9.156C335.851,396.615,332.347,404.646,331.405,412.299z
			 M273.886,409.582c-14.773,2.74-29.919,2.43-45.021-0.927c-6.23-1.388-12.031-3.132-17.251-5.185
			c-2.845-14.079-7.817-48.425,4.98-72.443c5.242-9.839,14.551-16.513,25.541-18.31c11.273-1.84,22.547,1.644,30.931,9.568
			c22.165,20.906,23.739,55.562,21.108,81.117C288.138,406.125,281.316,408.204,273.886,409.582z M149.183,425.035
			c-6.843-7.02-9.056-18.507-9.767-24.729c-0.095-0.83,0.158-1.629,0.711-2.253c0.547-0.615,1.334-0.971,2.16-0.975l12.241-0.058
			l8.214-9.479c0.554-0.639,1.346-0.999,2.19-0.999c0.041,0,0.082,0.001,0.123,0.002c0.892,0.037,1.704,0.471,2.231,1.19
			c6.067,8.291,9.665,15.854,10.695,22.477c1.185,7.617-2.468,14.746-9.305,18.163C163.396,431.013,155.504,431.519,149.183,425.035
			z M179.448,409.982c-0.791-5.082-3.023-10.67-6.65-16.674c3.474-2.492,7.614-5.199,12.21-7.698
			c2.988,4.604,6.896,8.642,11.603,11.831l0.037,0.026l0.001-0.001c0.277,0.187,0.552,0.376,0.834,0.558
			c3.791,2.432,8.112,4.622,12.834,6.521l0.002,0.01l0.373,0.148c3.669,1.462,7.629,2.766,11.817,3.907
			c-7.027,1.446-24.676,5.748-46.865,16.025C178.848,420.646,180.295,415.433,179.448,409.982z M168.21,378.235
			c-9.926-1.587-16.898-6.701-18.396-7.878l0.968-8.705l-7.617,4.896c-1.521-1.614-2.647-3.484-3.353-5.566
			c-0.807-2.383-0.421-5.075,1.03-7.199c2.12-3.084,4.422-6.287,6.849-9.533c4.203,4.386,16.06,15.471,30.506,18.237
			c0,1.096,0.04,2.188,0.122,3.272c-1.11,2.769-2.15,5.537-3.104,8.267C174.193,376.95,171.249,378.719,168.21,378.235z
			 M151.947,338.705c2.177,1.232,4.538,2.016,7.05,2.286c0.663,0.071,1.321,0.105,1.974,0.105c9.268,0,17.263-7.012,18.273-16.432
			c0.515-4.805-0.847-9.48-3.808-13.261c14.721-15.78,28.03-28.011,33.475-32.889c-0.392,1.726-0.85,3.441-1.378,5.139l-0.001,0.028
			c-1.649,5.302-3.953,10.415-6.885,15.226c-13.733,22.499-19.417,42.802-21.766,55.874c-0.372,2.078-0.588,4.155-0.659,6.216
			c-14.102-2.8-25.687-13.811-29.618-17.946C149.698,341.606,150.81,340.157,151.947,338.705z M152.859,337.541
			c6.384-8.072,13.634-16.492,21.567-25.049c2.623,3.442,3.807,7.676,3.342,12.016c-0.994,9.268-9.334,16.014-18.611,15.007
			C156.921,339.274,154.806,338.611,152.859,337.541z M212.056,262.302l-0.137-7.222c1.127-0.259,2.274-0.39,3.415-0.39
			c8.311,0,15.073,6.757,15.073,15.063c0,8.311-6.762,15.074-15.073,15.074c-2.174,0-4.255-0.449-6.197-1.335
			C211.21,276.608,212.192,269.483,212.056,262.302z M309.078,394.179c-2.795-3.663-4.327-8.188-4.327-12.824
			c0-10.725,7.857-19.616,18.398-20.984C323.939,373.393,318.724,385.926,309.078,394.179z M207.238,359.953
			c-5.334-3.74-8.837-9.923-8.837-16.918c0-11.394,9.269-20.663,20.662-20.663c0.619,0,1.228,0.039,1.833,0.093
			c-2.17,2.334-4.067,4.961-5.614,7.865C210.492,339.32,208.151,349.706,207.238,359.953z M200.33,385.444
			c0,3.747-1.37,7.299-3.871,10.073c-8.103-5.844-13.696-14.47-15.829-24.409c1.492-0.483,3.046-0.726,4.627-0.726
			C193.569,370.382,200.33,377.139,200.33,385.444z M303.265,381.355c0,4.982,1.669,9.832,4.686,13.762
			c-3.639,2.878-7.752,5.396-12.213,7.532c2.536-25.799,0.692-60.368-21.653-81.443c-8.725-8.244-20.46-11.871-32.19-9.954
			c-7.566,1.237-14.358,4.704-19.678,9.863c-1.031-0.148-2.083-0.228-3.154-0.228c-12.212,0-22.147,9.935-22.147,22.148
			c0,7.807,4.064,14.677,10.183,18.623c-1.211,16.388,1.117,32.202,2.864,41.125c-4.277-1.776-8.213-3.786-11.677-6.01
			c-0.208-0.134-0.41-0.275-0.616-0.412c2.67-3.025,4.146-6.862,4.146-10.917c0-9.125-7.428-16.548-16.559-16.548
			c-1.69,0-3.347,0.269-4.946,0.771c-0.833-4.733-0.855-9.674,0.032-14.623c2.327-12.946,7.959-33.059,21.572-55.362
			c2.853-4.682,5.116-9.647,6.782-14.789c2.088,0.925,4.31,1.42,6.636,1.42c9.13,0,16.558-7.428,16.558-16.559
			c0-9.125-7.428-16.548-16.558-16.548c-1.15,0-2.304,0.126-3.442,0.365l-0.52-27.7c1.597,0.06,3.189,0.099,4.771,0.099
			c0.002,0,0.005,0,0.007,0c0.002,0,0.004,0,0.006,0c3.643,0,7.25-0.159,10.811-0.476c11.294-1.012,21.397-6.215,28.641-14.154
			c0.008-0.009,0.017-0.018,0.026-0.027c0.359-0.394,0.709-0.795,1.053-1.202c0.022-0.026,0.045-0.051,0.067-0.077
			c0.275-0.327,0.541-0.661,0.806-0.996c0.087-0.11,0.179-0.216,0.265-0.327c0.294-0.378,0.578-0.763,0.859-1.151
			c0.053-0.072,0.108-0.142,0.161-0.215c0.33-0.461,0.652-0.929,0.965-1.403c0.001-0.001,0.002-0.003,0.003-0.004
			c0.608-0.922,1.18-1.87,1.719-2.841c0.018-0.032,0.037-0.063,0.055-0.095c0.277-0.501,0.544-1.009,0.802-1.523
			c0-0.001,0.001-0.001,0.001-0.002c0.246-0.49,0.482-0.986,0.71-1.488c0.011-0.025,0.024-0.049,0.035-0.075
			c0.194-0.429,0.378-0.865,0.559-1.302c0.041-0.099,0.087-0.196,0.127-0.296c0.157-0.387,0.302-0.78,0.449-1.172
			c0.057-0.154,0.12-0.305,0.176-0.46c0.1-0.279,0.19-0.563,0.285-0.844c0.092-0.274,0.19-0.545,0.277-0.821
			c0.069-0.218,0.129-0.441,0.194-0.661c0.103-0.344,0.209-0.687,0.304-1.035c0.063-0.233,0.117-0.47,0.177-0.705
			c0.086-0.339,0.177-0.676,0.256-1.019c0-0.001,0.001-0.002,0.001-0.004c0,0,0,0,0-0.001c0.011-0.048,0.021-0.097,0.032-0.145
			l2.305,25.683c-1.23-0.211-2.491-0.322-3.765-0.322c-12.21,0-22.144,9.938-22.144,22.154c0,12.21,9.934,22.144,22.144,22.144
			c2.913,0,5.732-0.563,8.397-1.664c2.853,11.497,8.596,22.135,16.704,30.676c0.62,0.652,1.25,1.334,1.884,2.03
			c-6.473,4.246-10.466,11.574-10.466,19.355c0,12.762,10.387,23.144,23.154,23.144c4.199,0,8.265-1.137,11.832-3.27
			c2.972,7.631,5.346,16.031,6.735,25.207c0.117,0.775,0.199,1.55,0.273,2.324C311.713,360.349,303.265,369.855,303.265,381.355z
			 M144.776,78.894c2.178-5.118,6.577-8.734,11.768-9.671c0.985-0.178,1.952-0.256,2.892-0.256c6.872,0,12.275,4.185,12.329,4.228
			c9.239,7.492,21.203,16.438,29.11,22.263l-3.551,4.272l-0.001,0l-0.516,0.622c-2.445,0.874-4.833,1.925-7.142,3.148
			c-1.154-0.72-2.351-1.443-3.581-2.158c-12.923-7.499-23.088-10.407-30.207-8.643c-3.925,0.972-6.819,3.858-7.741,7.719
			c-0.919,3.848,0.352,7.715,3.401,10.345c4.351,3.754,11.27,6.104,20.682,7.044c-0.775,0.838-1.545,1.677-2.305,2.522
			c-5.576-0.292-10.193-0.834-13.438-1.318c-9.078-1.352-16.016-8.871-16.495-17.881C139.528,92.654,142.791,83.56,144.776,78.894z
			 M197.303,47.327c7.833,0,14.206,6.372,14.206,14.206s-6.372,14.206-14.206,14.206c-7.833,0-14.206-6.372-14.206-14.206
			S189.47,47.327,197.303,47.327z M197.303,77.224c1.287,0,2.531-0.173,3.728-0.466v16.969c-2.36-1.741-5.045-3.734-7.887-5.865
			V76.646C194.471,77.012,195.861,77.224,197.303,77.224z M214.157,81.805c7.81-0.297,15.018-1.519,21.445-3.635l1.267,3.177
			c-9.219,3.217-18.749,3.973-25.637,3.978L214.157,81.805z M215.449,80.248l14.197-17.081l5.408,13.607
			C229.151,78.709,222.568,79.874,215.449,80.248z M210.002,86.802c0.38,0.005,0.761,0.009,1.16,0.009
			c7.029,0,16.794-0.777,26.255-4.089l4.105,10.329c-15.841,8.477-35.062,7.617-42.43,6.877L210.002,86.802z M244.793,67.052
			c1.751-6.713,7.825-11.173,14.459-11.173c1.245,0,2.509,0.157,3.767,0.485c3.862,1.007,7.101,3.457,9.119,6.9
			c2.018,3.443,2.576,7.465,1.569,11.327c-2.078,7.972-10.26,12.765-18.226,10.688c-3.862-1.007-7.1-3.458-9.118-6.9
			C244.344,74.936,243.787,70.913,244.793,67.052z M255.105,86.716c1.318,0.344,2.639,0.511,3.943,0.527l-3.303,12.668
			c-2.979,1.903-5.683,3.53-7.969,4.854l-1.161-2.922l4.39-16.834C252.262,85.742,253.629,86.331,255.105,86.716z M298.123,75.613
			c5.084,0.179,9.374,2.126,12.754,5.786c2.926,3.171,4.84,7.309,5.535,11.967c3.216,21.527-4.319,31.831-9.097,36.058
			c-8.531,7.546-22.372,9.364-41.212,5.437c-0.309-0.924-0.637-1.839-0.992-2.742c3.587,0.377,6.87,0.556,9.86,0.556
			c19.04,0,26.514-7.064,29.282-13.906c2.55-6.303,0.083-13.494-5.74-16.727c-7.483-4.154-17.715-1.448-30.413,8.04
			c-3.959,2.959-7.543,6.145-10.372,8.846c-2.243-2.974-4.777-5.724-7.579-8.191l-1.818-4.575
			c8.097-4.68,21.569-13.205,33.654-24.316C286.579,77.621,292.316,75.411,298.123,75.613z M188.153,104.33
			c-4.26,2.434-8.226,5.467-11.748,9.064c-0.971,0.992-1.932,1.995-2.884,3.006c-11.553-1.011-17.723-3.923-21.014-6.762
			c-2.62-2.26-3.714-5.578-2.926-8.875c0.791-3.311,3.278-5.786,6.653-6.622c1.25-0.309,2.58-0.453,3.973-0.453
			C168.753,93.688,179.599,99.073,188.153,104.33z M205.892,105.265c-2.294-1.131-4.495-2.412-6.568-3.822
			c7.745,0.737,26.852,1.442,42.754-6.997l1.187,2.984C230.882,104.455,216.193,105.585,205.892,105.265z M264.467,130.556
			c-1.579-3.687-3.541-7.176-5.846-10.411c9.308-8.889,27.237-23.427,39.171-16.805c5.168,2.869,7.354,9.262,5.084,14.871
			C299.834,125.73,290.587,133.496,264.467,130.556z M248.517,110.655c-4.045,0.736-21.741,3.312-39.169-3.86
			c10.087-0.036,23.164-1.636,34.462-7.984L248.517,110.655z M177.466,114.433c5.636-5.756,12.437-10.027,19.761-12.657
			c0.673,0.486,1.359,0.958,2.06,1.417c0.061,0.04,0.123,0.077,0.184,0.117c0.751,0.488,1.518,0.957,2.298,1.412
			c0.061,0.035,0.123,0.07,0.184,0.106c1.12,0.647,2.259,1.269,3.429,1.842l0.153,0.07l0.078,0.003
			c10.685,5.149,21.767,6.449,30.149,6.449c7.079,0,12.222-0.912,13.58-1.18c10.611,9.425,17.318,22.951,18.122,37.852
			c0.524,9.743,0.511,23.938-2.251,38.001c-53.625-43.293-106.001-29.131-127.553-20.129c0.932-2.687,2.204-5.304,3.839-7.785
			C148.102,149.924,161.558,130.679,177.466,114.433z M315.469,329.995c-3.385,2.076-7.272,3.169-11.281,3.169
			c-11.948,0-21.668-9.716-21.668-21.659c0-7.355,3.807-14.288,9.974-18.243C302.39,304.371,310.116,316.724,315.469,329.995z
			 M272.547,257.993c-2.544,1.082-5.243,1.63-8.033,1.63c-11.391,0-20.658-9.268-20.658-20.659c0-11.397,9.267-20.668,20.658-20.668
			c1.325,0,2.635,0.124,3.905,0.368l2.714,30.27C271.403,251.977,271.878,255.022,272.547,257.993z M137.11,169.579
			c20.629-8.879,73.602-24.248,127.771,19.919c-0.127,0.591-0.254,1.18-0.388,1.764c-4.123,17.941-19.256,31.102-37.659,32.751
			c-19.127,1.708-39.527-1.234-60.652-8.752c-0.107-0.034-10.761-3.51-19.589-11.624
			C137.227,195.015,133.611,181.993,137.11,169.579z M323.979,292.562c-2.271,3.053-5.798,4.842-9.662,4.842
			c-5.882,0-10.774-4.129-11.832-9.784C310.295,290.484,317.514,292.143,323.979,292.562z M365.516,308.731
			c-3.877,2.851-10.667,5.681-20.992,2.984c-1.368-0.357-2.244-1.715-1.993-3.09l1.951-10.731l-8.626-6.426
			c-1.014-0.755-1.361-2.094-0.844-3.256c1.987-4.473,7.766-14.882,18.482-14.949c0.031,0,0.063,0,0.095,0
			c4.863,0,9.708,2.292,13.307,6.299c2.705,3.013,5.913,8.017,5.832,14.754C372.656,300.076,369.961,305.464,365.516,308.731z
			 M363.663,274.864c-3.084-1.993-6.57-3.086-10.075-3.086c-0.035,0-0.07,0-0.104,0c-3.773,0.024-6.965,1.213-9.632,2.965
			l-16.697-32.189c0.915-0.104,1.826-0.255,2.729-0.457c0.896-0.201,1.649-0.785,2.065-1.604c0.416-0.819,0.445-1.772,0.078-2.615
			l-0.996-2.29c15.085-3.202,26.67-15.346,29.358-30.329c5.359,4.776,11.946,8.232,19.28,9.798l-1.175,2.673
			c-0.404,0.919-0.377,1.962,0.074,2.859c0.452,0.897,1.272,1.54,2.25,1.763c1.023,0.233,2.055,0.407,3.092,0.528L363.663,274.864z"
			/>
		<path d="M411.573,167.044l-12.725-2.686c-0.507-0.107-0.928-0.456-1.129-0.936l-5-12.004c-0.452-1.084-1.46-1.803-2.631-1.878
			c-1.158-0.063-2.262,0.511-2.849,1.529l-6.487,11.272c-0.258,0.449-0.721,0.743-1.239,0.784l-12.962,1.046
			c-1.17,0.094-2.165,0.831-2.599,1.922c-0.433,1.091-0.213,2.31,0.574,3.181l8.715,9.652c0.348,0.385,0.484,0.916,0.364,1.421
			l-3.01,12.651c-0.272,1.142,0.121,2.317,1.024,3.066c0.903,0.748,2.13,0.917,3.202,0.438l11.874-5.306
			c0.473-0.212,1.02-0.176,1.463,0.093l11.102,6.773c0.493,0.301,1.044,0.451,1.594,0.451c0.568,0,1.135-0.16,1.638-0.479
			c0.992-0.628,1.531-1.743,1.406-2.91l-1.377-12.931c-0.055-0.516,0.147-1.026,0.541-1.364l9.872-8.466
			c0.891-0.764,1.263-1.945,0.973-3.082C413.615,168.144,412.721,167.287,411.573,167.044z M401.043,182.35l1.377,12.931
			c0.066,0.61-0.205,1.17-0.723,1.498c-0.518,0.329-1.139,0.334-1.663,0.014l-11.102-6.773c-0.488-0.297-1.04-0.448-1.595-0.448
			c-0.425,0-0.85,0.089-1.249,0.267l-11.873,5.306c-0.56,0.25-1.176,0.165-1.649-0.225c-0.472-0.392-0.669-0.982-0.527-1.579
			l3.01-12.651c0.234-0.98-0.03-2.013-0.706-2.76l-8.715-9.652c-0.411-0.456-0.521-1.068-0.295-1.638s0.726-0.94,1.338-0.989
			l12.962-1.046c1.005-0.081,1.905-0.651,2.407-1.525l6.487-11.271c0.307-0.532,0.858-0.827,1.466-0.787
			c0.612,0.039,1.119,0.401,1.355,0.967l5,12.005c0.389,0.93,1.209,1.61,2.193,1.817l12.724,2.686
			c0.601,0.127,1.049,0.557,1.202,1.151c0.152,0.594-0.036,1.188-0.501,1.587l-9.872,8.466
			C401.33,180.357,400.937,181.347,401.043,182.35z"/>
		<path d="M210.138,195.638c4.607,0,8.355-4.525,8.355-10.086c0-5.561-3.748-10.086-8.355-10.086c-4.606,0-8.354,4.524-8.354,10.086
			C201.783,191.113,205.531,195.638,210.138,195.638z M203.269,185.552c0-4.742,3.081-8.6,6.869-8.6c3.788,0,6.869,3.858,6.869,8.6
			c0,4.742-3.081,8.601-6.869,8.601C206.35,194.153,203.269,190.294,203.269,185.552z"/>
		<path d="M167.939,189.935c4.032,0,7.313-3.951,7.313-8.807c0-4.856-3.281-8.807-7.313-8.807c-4.032,0-7.312,3.951-7.312,8.807
			C160.627,185.984,163.907,189.935,167.939,189.935z M167.939,173.807c3.213,0,5.827,3.284,5.827,7.321s-2.614,7.321-5.827,7.321
			s-5.826-3.284-5.826-7.321S164.726,173.807,167.939,173.807z"/>
		<path d="M234.388,152.083c6.589,0,11.93-6.089,11.93-13.6s-5.341-13.6-11.93-13.6c-6.589,0-11.93,6.089-11.93,13.6
			S227.799,152.083,234.388,152.083z M238.807,138.008c2.441,0,4.42,1.979,4.42,4.42c0,2.441-1.979,4.42-4.42,4.42
			c-2.441,0-4.42-1.979-4.42-4.42C234.388,139.986,236.367,138.008,238.807,138.008z M230.799,128.332
			c2.672,0,4.838,2.166,4.838,4.838c0,2.672-2.166,4.838-4.838,4.838c-2.672,0-4.838-2.166-4.838-4.838
			C225.961,130.498,228.127,128.332,230.799,128.332z"/>
		<path d="M189.041,122.494c-5.712,0-10.342,5.278-10.342,11.789c0,6.511,4.63,11.79,10.342,11.79
			c5.712,0,10.342-5.278,10.342-11.79C199.383,127.772,194.753,122.494,189.041,122.494z M185.93,133.872
			c-2.316,0-4.194-1.878-4.194-4.194c0-2.316,1.878-4.194,4.194-4.194s4.194,1.878,4.194,4.194
			C190.124,131.994,188.246,133.872,185.93,133.872z M192.872,141.535c-2.116,0-3.831-1.715-3.831-3.831
			c0-2.116,1.715-3.831,3.831-3.831s3.831,1.715,3.831,3.831C196.704,139.819,194.988,141.535,192.872,141.535z"/>
	</g>
	<g>
		<path d="M414.951,264.98c-3.194,0-5.794-2.6-5.794-5.794c0-1.901-1.422-3.468-3.277-3.569h-0.146c-1.88,0-3.41,1.53-3.41,3.41
			v0.159c0,3.194-2.599,5.794-5.793,5.794c-1.902,0-3.47,1.422-3.568,3.24c-0.048,0.948,0.282,1.846,0.933,2.531
			c0.641,0.676,1.544,1.063,2.476,1.063h0.159c3.194,0,5.793,2.604,5.793,5.807c0,1.901,1.423,3.468,3.279,3.569h0.132
			c1.888,0,3.424-1.536,3.424-3.424v-0.145c0-3.202,2.6-5.807,5.794-5.807h0.159c0.931,0,1.834-0.388,2.476-1.063
			c0.65-0.685,0.982-1.584,0.933-2.531v-0.003c-0.049-0.896-0.457-1.723-1.151-2.328C416.695,265.303,415.837,264.98,414.951,264.98
			z M416.508,269.728c-0.367,0.387-0.865,0.601-1.398,0.601h-0.159c-4.014,0-7.28,3.271-7.28,7.292v0.145
			c0,1.069-0.869,1.938-1.938,1.938l-0.091,0.001c-1.012-0.055-1.834-0.99-1.834-2.084c0-4.021-3.265-7.292-7.279-7.292h-0.159
			c-0.534,0-1.031-0.213-1.398-0.601c-0.368-0.386-0.555-0.895-0.527-1.43c0.054-1.01,0.989-1.832,2.084-1.832
			c4.013,0,7.279-3.266,7.279-7.28v-0.159c0-1.061,0.864-1.925,1.925-1.925l0.105-0.001c1.011,0.055,1.833,0.99,1.833,2.084
			c0,4.014,3.266,7.28,7.28,7.28c0.519,0,1.045,0.198,1.44,0.543c0.388,0.339,0.617,0.796,0.644,1.288
			C417.062,268.833,416.875,269.342,416.508,269.728z"/>
		<path d="M188.611,254.304c-3.195,0-5.794-2.6-5.794-5.794c0-1.901-1.422-3.469-3.278-3.569h-0.145c-1.88,0-3.41,1.53-3.41,3.41
			v0.159c0,3.194-2.599,5.794-5.794,5.794c-1.901,0-3.469,1.422-3.568,3.24c-0.049,0.947,0.283,1.846,0.933,2.531
			c0.642,0.675,1.544,1.063,2.476,1.063h0.159c3.195,0,5.794,2.605,5.794,5.807c0,1.901,1.422,3.468,3.278,3.569h0.132
			c1.887,0,3.423-1.536,3.423-3.424v-0.145c0-3.202,2.599-5.807,5.794-5.807h0.159c0.932,0,1.834-0.388,2.476-1.063
			c0.65-0.685,0.982-1.584,0.933-2.531v-0.003c-0.049-0.897-0.458-1.723-1.151-2.327
			C190.356,254.627,189.498,254.304,188.611,254.304z M190.168,259.052c-0.368,0.387-0.865,0.601-1.398,0.601h-0.159
			c-4.014,0-7.279,3.271-7.279,7.292v0.145c0,1.069-0.87,1.938-1.938,1.938l-0.091,0.001c-1.011-0.055-1.833-0.99-1.833-2.084
			c0-4.021-3.265-7.292-7.28-7.292h-0.159c-0.534,0-1.031-0.214-1.399-0.601c-0.367-0.387-0.555-0.896-0.527-1.429
			c0.055-1.011,0.99-1.833,2.084-1.833c4.014,0,7.28-3.266,7.28-7.279v-0.159c0-1.061,0.863-1.925,1.924-1.925l0.105-0.001
			c1.011,0.055,1.833,0.99,1.833,2.084c0,4.014,3.265,7.279,7.279,7.279c0.519,0,1.044,0.198,1.44,0.544
			c0.388,0.338,0.617,0.796,0.644,1.288C190.722,258.158,190.535,258.666,190.168,259.052z"/>
		<path d="M434.884,251.963c-2.294,0-4.16-1.866-4.16-4.16c0-1.524-1.144-2.781-2.644-2.862h-0.109c-1.513,0-2.743,1.23-2.743,2.743
			v0.119c0,2.294-1.866,4.16-4.16,4.16c-1.525,0-2.781,1.144-2.861,2.605c-0.04,0.762,0.227,1.485,0.749,2.036
			c0.516,0.544,1.243,0.855,1.992,0.855h0.119c2.294,0,4.16,1.87,4.16,4.169c0,1.524,1.143,2.781,2.603,2.862l0.139,0.001
			c1.518,0,2.753-1.235,2.753-2.753v-0.109c0-2.299,1.866-4.169,4.16-4.169h0.119c0.75,0,1.476-0.311,1.991-0.856
			c0.523-0.55,0.79-1.273,0.751-2.035v-0.002c-0.04-0.723-0.369-1.39-0.927-1.876C436.279,252.221,435.592,251.963,434.884,251.963z
			 M429.239,261.738c0,0.699-0.569,1.268-1.326,1.269c-0.661-0.036-1.199-0.655-1.199-1.378c0-3.118-2.532-5.655-5.645-5.655h-0.119
			c-0.349,0-0.674-0.139-0.915-0.393c-0.24-0.252-0.362-0.585-0.343-0.933c0.036-0.662,0.654-1.199,1.377-1.199
			c3.113,0,5.645-2.532,5.645-5.645v-0.119c0-0.693,0.564-1.257,1.257-1.257l0.069-0.001c0.661,0.036,1.199,0.654,1.199,1.377
			c0,3.113,2.532,5.645,5.645,5.645c0.344,0,0.693,0.132,0.957,0.362c0.253,0.221,0.402,0.517,0.42,0.837
			c0.017,0.35-0.104,0.682-0.343,0.934c-0.241,0.253-0.566,0.393-0.915,0.393h-0.119c-3.113,0-5.645,2.537-5.645,5.655V261.738z"/>
		<path d="M348.63,110.905c-2.294,0-4.16-1.866-4.16-4.16c0-1.525-1.144-2.781-2.644-2.862h-0.108c-1.513,0-2.744,1.231-2.744,2.743
			v0.118c0,2.294-1.866,4.16-4.16,4.16c-1.524,0-2.781,1.144-2.861,2.606c-0.039,0.762,0.228,1.485,0.751,2.035
			c0.516,0.543,1.242,0.854,1.991,0.854h0.118c2.294,0,4.16,1.87,4.16,4.169c0,1.525,1.144,2.781,2.644,2.862h0.1
			c1.517,0,2.752-1.235,2.752-2.753v-0.109c0-2.299,1.866-4.169,4.16-4.169h0.119c0.749,0,1.475-0.311,1.991-0.854
			c0.523-0.551,0.79-1.274,0.751-2.035v-0.003c-0.04-0.723-0.37-1.39-0.927-1.876C350.027,111.163,349.339,110.905,348.63,110.905z
			 M342.985,120.68c0,0.699-0.569,1.268-1.267,1.268l-0.059,0.001c-0.661-0.036-1.199-0.654-1.199-1.378
			c0-3.118-2.532-5.655-5.645-5.655h-0.118c-0.349,0-0.674-0.139-0.915-0.393c-0.24-0.252-0.362-0.585-0.344-0.933
			c0.036-0.661,0.654-1.199,1.377-1.199c3.113,0,5.645-2.532,5.645-5.645v-0.118c0-0.693,0.565-1.258,1.258-1.258l0.068-0.001
			c0.661,0.036,1.199,0.653,1.199,1.377c0,3.113,2.532,5.645,5.645,5.645c0.345,0,0.694,0.132,0.958,0.362
			c0.253,0.22,0.402,0.517,0.421,0.835c0.017,0.351-0.104,0.683-0.344,0.936c-0.241,0.253-0.566,0.393-0.915,0.393h-0.119
			c-3.113,0-5.645,2.537-5.645,5.655V120.68z"/>
		<path d="M170.042,243.864c0-3.119-2.537-5.656-5.656-5.656c-3.119,0-5.656,2.537-5.656,5.656c0,3.118,2.537,5.656,5.656,5.656
			C167.505,249.52,170.042,246.982,170.042,243.864z M164.386,248.035c-2.3,0-4.171-1.871-4.171-4.171
			c0-2.3,1.871-4.171,4.171-4.171c2.3,0,4.171,1.871,4.171,4.171C168.557,246.164,166.686,248.035,164.386,248.035z"/>
		<path d="M47.741,359.669c0-2.553-2.077-4.63-4.63-4.63s-4.63,2.076-4.63,4.63c0,2.553,2.077,4.63,4.63,4.63
			S47.741,362.222,47.741,359.669z M43.112,362.813c-1.734,0-3.144-1.41-3.144-3.144c0-1.734,1.41-3.144,3.144-3.144
			s3.144,1.41,3.144,3.144C46.256,361.403,44.845,362.813,43.112,362.813z"/>
		<path d="M111.294,123.42c-2.553,0-4.63,2.077-4.63,4.63c0,2.553,2.077,4.63,4.63,4.63c2.553,0,4.629-2.077,4.629-4.63
			C115.923,125.497,113.847,123.42,111.294,123.42z M111.294,131.194c-1.733,0-3.144-1.411-3.144-3.144
			c0-1.734,1.411-3.144,3.144-3.144c1.734,0,3.144,1.41,3.144,3.144C114.438,129.783,113.028,131.194,111.294,131.194z"/>
		<path d="M354.462,96.201c-3.119,0-5.656,2.537-5.656,5.656c0,3.119,2.537,5.656,5.656,5.656c3.119,0,5.657-2.537,5.657-5.656
			C360.119,98.739,357.581,96.201,354.462,96.201z M350.292,101.857c0-2.3,1.87-4.171,4.17-4.171s4.171,1.871,4.171,4.171
			c0,2.3-1.871,4.171-4.171,4.171S350.292,104.157,350.292,101.857z"/>
		<path d="M451.5,366.53c-3.119,0-5.657,2.538-5.657,5.657c0,3.119,2.538,5.656,5.657,5.656c3.119,0,5.656-2.537,5.656-5.656
			C457.156,369.067,454.619,366.53,451.5,366.53z M451.5,376.357c-2.3,0-4.171-1.87-4.171-4.17c0-2.3,1.871-4.171,4.171-4.171
			c2.3,0,4.17,1.871,4.17,4.171C455.671,374.486,453.8,376.357,451.5,376.357z"/>
		<path d="M55.716,221.815c-2.441,0-4.427,1.986-4.427,4.427c0,2.441,1.986,4.427,4.427,4.427c2.441,0,4.427-1.986,4.427-4.427
			C60.143,223.801,58.157,221.815,55.716,221.815z M52.774,226.243c0-1.622,1.32-2.942,2.942-2.942c1.622,0,2.942,1.32,2.942,2.942
			c0,1.622-1.32,2.941-2.942,2.941C54.094,229.184,52.774,227.865,52.774,226.243z"/>
		<path d="M52.501,365.073c-3.443,0-6.245,2.802-6.245,6.245c0,3.444,2.802,6.246,6.245,6.246c3.444,0,6.245-2.802,6.245-6.246
			C58.746,367.875,55.945,365.073,52.501,365.073z M52.501,376.078c-2.624,0-4.76-2.135-4.76-4.76c0-2.624,2.135-4.759,4.76-4.759
			c2.624,0,4.76,2.135,4.76,4.759C57.261,373.943,55.125,376.078,52.501,376.078z"/>
		<path d="M122.945,130.328c-3.871,0-7.021,3.15-7.021,7.021s3.15,7.021,7.021,7.021c3.871,0,7.021-3.15,7.021-7.021
			S126.816,130.328,122.945,130.328z M117.409,137.349c0-3.052,2.484-5.536,5.536-5.536s5.536,2.484,5.536,5.536
			c0,3.052-2.484,5.536-5.536,5.536S117.409,140.401,117.409,137.349z"/>
	</g>
	<g>
		<path d="M146.395,220.577c-0.322-0.652-0.995-1.025-1.721-0.95l-12.113,1.255c-1.479-2.339-3.31-4.418-5.447-6.185
			c-5.396-4.461-12.205-6.556-19.176-5.892c-6.969,0.661-13.264,3.997-17.725,9.392c-9.208,11.139-7.638,27.692,3.501,36.901
			c4.878,4.032,10.794,5.998,16.677,5.997c7.551,0,15.047-3.237,20.223-9.498c4.404-5.327,6.498-12.028,5.914-18.905l9.577-10.172
			C146.604,221.991,146.718,221.228,146.395,220.577z M145.024,221.502l-10.037,10.662l0.032,0.336
			c0.643,6.598-1.328,13.044-5.55,18.152c-8.687,10.507-24.301,11.989-34.809,3.302c-10.507-8.687-11.989-24.302-3.302-34.809
			c4.207-5.09,10.146-8.237,16.72-8.86c0.796-0.075,1.59-0.113,2.38-0.113c5.731,0,11.236,1.973,15.709,5.671
			c2.131,1.761,3.938,3.852,5.373,6.212l0.244,0.401l13.043-1.351c0.128-0.016,0.203,0.063,0.237,0.131
			C145.097,221.302,145.117,221.403,145.024,221.502z"/>
		<path d="M121.243,224.755c-5.13-2.208-9.613,2.176-11.195,4.01c-1.583-1.834-6.07-6.217-11.196-4.01
			c-3.203,1.378-5.098,4.835-4.608,8.405c0.582,4.24,3.74,10.456,15.487,15.993l0.317,0.149l0.317-0.149
			c11.746-5.536,14.905-11.753,15.488-15.993C126.342,229.59,124.446,226.133,121.243,224.755z M124.38,232.958
			c-0.527,3.839-3.448,9.49-14.332,14.701c-10.884-5.211-13.805-10.862-14.332-14.701c-0.4-2.911,1.132-5.723,3.724-6.839
			c0.764-0.329,1.519-0.469,2.252-0.469c4.233,0,7.716,4.678,7.756,4.734l0.6,0.819l0.599-0.819
			c0.048-0.065,4.836-6.49,10.009-4.265C123.248,227.235,124.78,230.048,124.38,232.958z"/>
	</g>
	<g>
		<path d="M148.827,365.841l-0.168,1.515c-0.564,0.059-1.119,0.129-1.674,0.188v-1.486
			C147.599,365.989,148.213,365.91,148.827,365.841z"/>
		<path d="M341.725,364.811c-0.01,0.465-0.039,0.961-0.099,1.466c-5.526-0.564-11.181-1.079-16.954-1.545
			c0.03-0.495,0.04-0.99,0.04-1.486C330.485,363.711,336.159,364.236,341.725,364.811z"/>
		<path d="M369.504,368.247v1.486c-8.388-1.228-17.202-2.327-26.392-3.298c0.059-0.505,0.089-0.99,0.109-1.466
			C352.311,365.92,361.086,367.009,369.504,368.247z"/>
		<path d="M463.417,407.257c0,6.734-5.873,13.122-17.46,18.995c-10.785,5.467-26.194,10.369-45.783,14.568
			c-40.128,8.596-93.458,13.34-150.174,13.34s-110.046-4.744-150.174-13.34c-19.589-4.199-34.998-9.101-45.783-14.568
			c-11.587-5.873-17.46-12.26-17.46-18.995c0-6.724,5.873-13.112,17.46-18.985c4.1-2.08,8.854-4.07,14.261-5.972v1.555
			c-19.203,6.843-30.255,14.845-30.255,23.402c0,25.095,94.894,45.436,211.952,45.436s211.952-20.341,211.952-45.436
			c0-7.378-8.23-14.36-22.817-20.52v-1.585c2.446,1.01,4.724,2.06,6.823,3.12C457.545,394.144,463.417,400.532,463.417,407.257z"/>
	</g>
</g>
</svg>
