<?xml version="1.0" encoding="utf-8"?>
<!-- Generator: Adobe Illustrator 27.5.0, SVG Export Plug-In . SVG Version: 6.00 Build 0)  -->
<svg version="1.1" xmlns="http://www.w3.org/2000/svg" xmlns:xlink="http://www.w3.org/1999/xlink" x="0px" y="0px"
	 viewBox="0 0 500 500" style="enable-background:new 0 0 500 500;" xml:space="preserve">
<g id="BACKGROUND">
	<rect style="fill:#FFFFFF;" width="500" height="500"/>
</g>
<g id="OBJECTS">
	<g>
		<path style="fill:#FFFFFF;stroke:#000000;stroke-width:2;stroke-linecap:round;stroke-linejoin:round;stroke-miterlimit:10;" d="
			M259.825,399.306c-65.553-0.941-145.717,8.499-192.051,25.277c-19.432,7.036-30.034,20.697-12.695,27.83
			c16.324,6.716,34.465-2.269,50.961,2.33c24.04,6.703,33.729,20.012,70.791,24.959c26.052,3.477,133.476,2.481,164.191-7.941
			c38.352-13.014,43.242-13.854,84.043-10.404c9.027,0.763,22.438-6.228,19.706-14.866
			C434.856,415.143,309.742,400.139,259.825,399.306z"/>
		<g>
			<g>
				<g>
					
						<path style="fill:#FFFFFF;stroke:#000000;stroke-width:2;stroke-linecap:round;stroke-linejoin:round;stroke-miterlimit:10;" d="
						M366.835,386.651c-2.817-8.313-3.869-17.442-3.034-26.334c0.348-3.709,2.068-8.353,5.227-7.929
						c3.221,0.432,3.934,5.5,3.79,9.301c0.747-8.756,2.646-17.375,5.609-25.459c0.938-2.56,2.194-5.298,4.435-6.222
						c1.732-0.714,3.811-0.055,5.001,1.585c1.19,1.64,1.413,4.154,0.536,6.047c2.885-9.78,9.887-17.755,18.304-20.847
						c1.088-0.4,2.302-0.714,3.339-0.156c1.433,0.77,1.945,2.979,1.553,4.769c-0.392,1.791-1.458,3.255-2.492,4.651
						c6.184-4.496,13.49-6.836,20.763-6.653c3.16,0.08,7.02,1.348,7.657,4.981c0.609,3.47-2.195,6.359-4.742,8.261
						c-7.459,5.572-15.487,10.094-23.857,13.437c2.002-0.766,4.081-1.542,6.172-1.26c2.092,0.281,4.207,1.931,4.561,4.366
						c0.586,4.029-3.444,6.628-6.749,7.914c-7.495,2.917-14.991,5.835-22.486,8.752c1.831-0.489,3.726-0.979,5.569-0.559
						c1.843,0.42,3.631,2.005,3.88,4.189c0.259,2.272-1.223,4.399-2.981,5.396c-1.759,0.997-3.762,1.151-5.694,1.484
						c-8.587,1.478-16.63,6.938-22.004,14.935C368.46,389.751,367.424,388.39,366.835,386.651z"/>
					<path style="fill:none;stroke:#000000;stroke-width:2;stroke-linecap:round;stroke-linejoin:round;stroke-miterlimit:10;" d="
						M404.882,335.191c-15.456,11.804-27.88,28.999-35.277,48.822"/>
				</g>
				
					<path style="fill:#FFFFFF;stroke:#000000;stroke-width:2;stroke-linecap:round;stroke-linejoin:round;stroke-miterlimit:10;" d="
					M343.561,421.674c-0.464-9.451,0.23-32.393,9.723-40.959c7.157-6.459,33.356,3.888,35.489,16.661
					c1.043,6.247-4.749,21.338-12.302,30.425C364.935,427.259,355.742,427.146,343.561,421.674z"/>
				<path style="fill:none;stroke:#000000;stroke-width:2;stroke-linecap:round;stroke-linejoin:round;stroke-miterlimit:10;" d="
					M387.281,404.648c-4.058-7.13-10.572-12.272-17.729-13.994"/>
				<path style="fill:none;stroke:#000000;stroke-width:2;stroke-linecap:round;stroke-linejoin:round;stroke-miterlimit:10;" d="
					M360.558,411.328c-4.863-2.401-10.29-3.206-15.509-2.301"/>
			</g>
			<path style="fill:#FFFFFF;stroke:#000000;stroke-width:2;stroke-linecap:round;stroke-linejoin:round;stroke-miterlimit:10;" d="
				M332.609,423.149c2.75-3.194,6.652-4.975,10.519-4.802c3.867,0.173,7.641,2.299,10.176,5.729
				c5.053-4.675,13.259-3.582,17.29,2.304c3.103-2.646,7.35-3.331,10.946-1.764c3.596,1.566,6.434,5.337,7.314,9.719"/>
		</g>
		<g>
			<g>
				<g>
					
						<path style="fill:#FFFFFF;stroke:#000000;stroke-width:2;stroke-linecap:round;stroke-linejoin:round;stroke-miterlimit:10;" d="
						M101.498,394.458c4.996-7.145,8.488-15.594,10.073-24.376c0.661-3.663,0.236-8.629-2.964-9.158
						c-3.262-0.539-5.326,4.115-6.212,7.804c1.635-8.625,2.107-17.459,1.397-26.094c-0.225-2.734-0.712-5.735-2.65-7.284
						c-1.498-1.198-3.707-1.181-5.312,0.041c-1.605,1.222-2.502,3.569-2.156,5.645c-0.176-10.241-4.86-19.967-12.245-25.426
						c-0.955-0.706-2.055-1.366-3.218-1.139c-1.607,0.314-2.704,2.283-2.804,4.118c-0.101,1.835,0.545,3.556,1.177,5.201
						c-4.825-6.145-11.328-10.555-18.479-12.531c-3.108-0.859-7.219-0.785-8.822,2.514c-1.531,3.15,0.427,6.753,2.4,9.332
						c5.779,7.556,12.397,14.272,19.668,19.958c-1.748-1.328-3.568-2.688-5.687-3.037c-2.119-0.349-4.629,0.608-5.633,2.84
						c-1.66,3.693,1.573,7.38,4.454,9.594c6.532,5.019,13.063,10.037,19.594,15.056c-1.656-1.011-3.374-2.042-5.287-2.185
						c-1.913-0.142-4.088,0.85-4.92,2.872c-0.866,2.104,0.006,4.584,1.454,6.061c1.448,1.477,3.363,2.219,5.16,3.11
						c7.986,3.961,14.366,11.581,17.454,20.848C99.074,396.953,100.453,395.954,101.498,394.458z"/>
					<path style="fill:none;stroke:#000000;stroke-width:2;stroke-linecap:round;stroke-linejoin:round;stroke-miterlimit:10;" d="
						M78.24,333.807c11.905,15.904,19.395,36.085,21.266,57.299"/>
				</g>
				
					<path style="fill:#FFFFFF;stroke:#000000;stroke-width:2;stroke-linecap:round;stroke-linejoin:round;stroke-miterlimit:10;" d="
					M126.53,424.166c1.439-8.196,3.113-28.331-5.495-37.066c-6.49-6.586-33.753-0.995-37.204,9.883
					c-1.688,5.321,3.359,23.063,9.973,31.997C105.395,430.026,113.787,427.343,126.53,424.166z"/>
				<path style="fill:none;stroke:#000000;stroke-width:2;stroke-linecap:round;stroke-linejoin:round;stroke-miterlimit:10;" d="
					M84.572,403.533c4.793-5.695,11.837-9.329,19.171-9.892"/>
				<path style="fill:none;stroke:#000000;stroke-width:2;stroke-linecap:round;stroke-linejoin:round;stroke-miterlimit:10;" d="
					M110.603,412.889c5.11-1.457,10.619-1.446,15.745,0.032"/>
			</g>
			<path style="fill:#FFFFFF;stroke:#000000;stroke-width:2;stroke-linecap:round;stroke-linejoin:round;stroke-miterlimit:10;" d="
				M138.286,423.221c-2.959-2.625-6.989-3.931-10.862-3.521c-3.874,0.41-7.535,2.529-9.871,5.713
				c-5.363-3.774-13.54-2.266-17.228,3.175c-3.28-2.12-7.588-2.439-11.105-0.823c-3.516,1.616-6.135,5.12-6.75,9.03"/>
		</g>
		<g>
			<path style="fill:#FFFFFF;stroke:#000000;stroke-width:2;stroke-linecap:round;stroke-linejoin:round;stroke-miterlimit:10;" d="
				M210.202,466.425c-1.231-0.694-2.526-1.451-3.195-2.696c-0.669-1.245-0.373-3.116,0.945-3.627
				c0.834-0.324,1.808-0.003,2.491,0.574c0.683,0.578,1.136,1.376,1.574,2.156c-0.418-1.048-0.843-2.137-0.787-3.263
				c0.056-1.127,0.732-2.306,1.829-2.57c1.113-0.268,2.266,0.503,2.817,1.506c0.551,1.003,0.639,2.187,0.716,3.329
				c0.309-0.858,0.628-1.734,1.21-2.436c0.582-0.702,1.488-1.206,2.387-1.061c1.285,0.208,2.052,1.668,1.957,2.966
				s-0.815,2.455-1.514,3.553"/>
			<path style="fill:#FFFFFF;stroke:#000000;stroke-width:2;stroke-linecap:round;stroke-linejoin:round;stroke-miterlimit:10;" d="
				M310.144,417.598c-1.033-0.965-2.113-2.005-2.469-3.373c-0.357-1.368,0.372-3.116,1.774-3.302
				c0.887-0.118,1.758,0.423,2.285,1.146c0.528,0.723,0.779,1.604,1.021,2.466c-0.159-1.117-0.315-2.275,0.005-3.357
				c0.32-1.082,1.256-2.069,2.384-2.066c1.145,0.002,2.083,1.023,2.382,2.128c0.299,1.105,0.106,2.276-0.089,3.404
				c0.502-0.761,1.02-1.537,1.75-2.082c0.731-0.545,1.73-0.821,2.57-0.468c1.199,0.505,1.601,2.105,1.203,3.344
				c-0.398,1.239-1.371,2.194-2.309,3.096"/>
			<path style="fill:#FFFFFF;stroke:#000000;stroke-width:2;stroke-linecap:round;stroke-linejoin:round;stroke-miterlimit:10;" d="
				M307.104,455.405c-0.268-1.076-1.117-1.886-1.758-2.789c-0.641-0.902-1.08-2.165-0.469-3.088c0.682-1.03,2.32-0.946,3.266-0.155
				c0.946,0.791,1.374,2.03,1.761,3.206c0.033-0.95,0.072-1.923,0.435-2.8c0.364-0.877,1.128-1.65,2.068-1.738
				c1.139-0.108,2.169,0.83,2.564,1.912c0.395,1.082,0.304,2.273,0.208,3.422c0.083-1.313,1.374-2.388,2.679-2.324
				c1.305,0.064,2.452,1.169,2.681,2.465c0.229,1.295-0.408,2.674-1.478,3.43"/>
			<path style="fill:#FFFFFF;stroke:#000000;stroke-width:2;stroke-linecap:round;stroke-linejoin:round;stroke-miterlimit:10;" d="
				M229.349,425.486c0.822-0.596,1.663-1.214,2.211-2.072c0.547-0.859,0.74-2.028,0.205-2.894c-0.68-1.103-2.282-1.289-3.458-0.76
				c-1.176,0.529-2.025,1.582-2.828,2.597c0.432-2.064-1.703-4.208-3.748-3.764c-2.046,0.444-3.117,3.283-1.881,4.985
				c-0.829-1.654-3.373-2.063-4.672-0.752c-1.299,1.311-0.889,3.875,0.753,4.708"/>
			<path style="fill:#FFFFFF;stroke:#000000;stroke-width:2;stroke-linecap:round;stroke-linejoin:round;stroke-miterlimit:10;" d="
				M413.142,439.231c1.005-0.144,2.038-0.298,2.922-0.802s1.6-1.448,1.531-2.465c-0.088-1.293-1.417-2.205-2.705-2.285
				c-1.287-0.08-2.529,0.455-3.713,0.979c1.345-1.624,0.456-4.516-1.56-5.078c-2.016-0.562-4.288,1.45-3.989,3.532
				c0.038-1.85-2.021-3.398-3.782-2.844c-1.761,0.554-2.593,3.013-1.529,4.516"/>
			<path style="fill:#FFFFFF;stroke:#000000;stroke-width:2;stroke-linecap:round;stroke-linejoin:round;stroke-miterlimit:10;" d="
				M146.418,452.488c-1.404-0.725-2.871-1.506-3.728-2.832c-0.857-1.327-0.822-3.371,0.497-4.24c0.945-0.623,2.244-0.448,3.217,0.13
				c0.973,0.578,1.691,1.492,2.387,2.385c-1.527-1.75-0.494-4.989,1.764-5.532c2.258-0.543,4.65,1.872,4.086,4.125
				c0.292-1.106,0.672-2.329,1.673-2.882c1.499-0.828,3.449,0.518,3.892,2.172c0.442,1.654-0.141,3.391-0.717,5.003"/>
		</g>
	</g>
	<g>
		<path style="fill:#FFFFFF;stroke:#000000;stroke-linecap:round;stroke-linejoin:round;stroke-miterlimit:10;" d="M178.01,162.467
			c0,0-131.284,0-132.231-0.494c-1.152-6.181,0.759-12.822,5.054-17.561c4.294-4.739,10.885-7.48,17.427-7.247
			c1.261-13.441,13.995-24.997,28.058-25.463s27.598,10.219,29.825,23.544c5.504-2.432,12.843,0.349,15.128,5.732
			c6.788-6.505,18.359-7.775,26.504-2.907C175.92,142.937,179.831,153.458,178.01,162.467z"/>
		<path style="fill:#FFFFFF;stroke:#000000;stroke-linecap:round;stroke-linejoin:round;stroke-miterlimit:10;" d="M238.638,59.618
			c0,0,68.395,0,68.089-0.228c1.465-3.344,0.507-7.537-2.279-9.973c-2.786-2.436-7.197-2.938-10.492-1.193
			c-1.067-6.745-8.044-12.098-15.081-11.569c-7.036,0.528-13.075,6.858-13.052,13.682c-1.651-2.06-4.646-3.009-7.238-2.293
			c-2.591,0.716-4.616,3.052-4.891,5.644c-2.542-2.558-6.705-3.469-10.138-2.216C240.124,52.723,237.62,56.066,238.638,59.618z"/>
		<path style="fill:#FFFFFF;stroke:#000000;stroke-linecap:round;stroke-linejoin:round;stroke-miterlimit:10;" d="M151.316,292.521
			c0,0-57.492,0-57.234-0.192c-1.231-2.811-0.426-6.336,1.916-8.383c2.342-2.047,6.05-2.469,8.819-1.003
			c0.897-5.67,6.762-10.169,12.677-9.725c5.915,0.444,10.991,5.765,10.972,11.501c1.387-1.731,3.906-2.529,6.084-1.927
			c2.178,0.602,3.88,2.566,4.112,4.744c2.137-2.151,5.636-2.916,8.522-1.863C150.068,286.726,152.173,289.535,151.316,292.521z"/>
		<path style="fill:#FFFFFF;stroke:#000000;stroke-linecap:round;stroke-linejoin:round;stroke-miterlimit:10;" d="M454.674,200.984
			c0,0-114.64,0-114.878-0.587c3.823-10.812,18.698-15.87,28.32-9.631c-4.651-10.964,2.693-25.266,14.313-27.874
			c11.62-2.609,24.373,7.182,24.854,19.081c3.087-2.214,8.102-0.699,9.448,2.853c5.99-5.33,15.138-6.796,22.494-3.606
			C446.583,184.411,451.763,192.092,454.674,200.984z"/>
	</g>
	<g>
		<g>
			<path style="fill:#FFFFFF;stroke:#000000;stroke-width:2;stroke-linecap:round;stroke-linejoin:round;stroke-miterlimit:10;" d="
				M276.149,284.165c24.046-1.644,50.833-11.055,76.394-21.693c12.353-5.142,17.971,10.784,9.024,22.436
				c-22.354,29.111-64.513,40.183-86.988,45.924C274.689,318.067,274.798,298.748,276.149,284.165z"/>
			<path style="fill:#FFFFFF;stroke:#000000;stroke-width:2;stroke-linecap:round;stroke-linejoin:round;stroke-miterlimit:10;" d="
				M339.695,280.91c-1.269-2.976,0.803-6.747,4.628-8.421s7.955-0.619,9.224,2.357c1.269,2.976-0.803,6.747-4.628,8.421
				C345.094,284.942,340.964,283.887,339.695,280.91z"/>
			<path style="fill:none;stroke:#000000;stroke-width:2;stroke-linecap:round;stroke-linejoin:round;stroke-miterlimit:10;" d="
				M354.501,267.372c2.129-1.442,4.855-2.318,7.647-2.457"/>
			<path style="fill:none;stroke:#000000;stroke-width:2;stroke-linecap:round;stroke-linejoin:round;stroke-miterlimit:10;" d="
				M358.324,275.579c1.687-1.942,3.993-3.323,6.485-3.886"/>
		</g>
		<g>
			<path style="fill:#FFFFFF;stroke:#000000;stroke-width:2;stroke-linecap:round;stroke-linejoin:round;stroke-miterlimit:10;" d="
				M256.733,389.828c-5.823-0.275-11.704,1.489-16.477,5.085c-2.757,2.077-3.676,5.785-2.201,8.895
				c4.104,8.652,10.425,18.658,17.607,26.201c2.423,2.545,5.645,4.186,9.122,4.764c16.668,2.771,39.266,2.62,40.334-0.468
				c2.869-8.299-2.851-18.806-20.156-19.628c-4.026-3.537-6.997-8.113-8.495-13.085"/>
			<path style="fill:none;stroke:#000000;stroke-width:2;stroke-linecap:round;stroke-linejoin:round;stroke-miterlimit:10;" d="
				M287.493,436.45c1.388-4.621-0.846-10.057-5.093-12.39"/>
			<path style="fill:none;stroke:#000000;stroke-width:2;stroke-linecap:round;stroke-linejoin:round;stroke-miterlimit:10;" d="
				M299.728,435.992c0.671-4.931-1.377-10.144-5.234-13.318"/>
			<g>
				
					<path style="fill:#FFFFFF;stroke:#000000;stroke-width:2;stroke-linecap:round;stroke-linejoin:round;stroke-miterlimit:10;" d="
					M270.067,409.577c41.724-4.832,33.425-40.804,17.901-73.821c-0.238-0.506-0.351-1.058-0.33-1.616
					c0.689-18.722-1.152-38.658-3.958-55.407c-12.036-0.59-26.952-1.879-45.361-6.017c-14.104,16.617-28.205,33.24-42.097,50.389
					c-18.813,13.318-40.38,29.124-24.535,64.668l23.967,19.94c2.767-6.835,7.546-15.418,12.942-20.55
					c7.564-7.193,14.634-8.772,23.002-9.826c4.344,4.177,7.753,8.89,11.601,17.342"/>
			</g>
			<g>
				
					<path style="fill:#FFFFFF;stroke:#000000;stroke-width:2;stroke-linecap:round;stroke-linejoin:round;stroke-miterlimit:10;" d="
					M194.964,405.613c4.132,11.042,0.078,21.059-8.339,18.34c-19.297-6.232-55.477-41.516-51.061-50.737
					c3.423-7.148,13.261-8.035,26.36-1.957c5.355,2.485,16.755,10.864,21.447,18.642"/>
				
					<path style="fill:#FFFFFF;stroke:#000000;stroke-width:2;stroke-linecap:round;stroke-linejoin:round;stroke-miterlimit:10;" d="
					M165.615,406.497c-4.827-3.881-7.593-8.384-6.177-10.057c1.415-1.673,6.476,0.116,11.303,3.997
					c4.827,3.881,7.593,8.384,6.178,10.057C175.503,412.168,170.443,410.378,165.615,406.497z"/>
				<path style="fill:none;stroke:#000000;stroke-width:2;stroke-linecap:round;stroke-linejoin:round;stroke-miterlimit:10;" d="
					M153.078,380.717c-2.023-2.256-3.813-4.711-5.133-7.526c-0.878-1.873-0.154-4.176,1.732-5.103
					c0.013-0.006,0.026-0.013,0.039-0.019"/>
				<path style="fill:none;stroke:#000000;stroke-width:2;stroke-linecap:round;stroke-linejoin:round;stroke-miterlimit:10;" d="
					M145.495,386.176c-2.805-2.514-5.044-5.624-6.563-9.347c-0.788-1.933-0.707-4.13,0.388-5.915
					c0.684-1.115,1.58-2.107,2.638-2.897"/>
			</g>
		</g>
		<g>
			<g>
				<g>
					
						<path style="fill:#FFFFFF;stroke:#000000;stroke-width:2;stroke-linecap:round;stroke-linejoin:round;stroke-miterlimit:10;" d="
						M331.93,252.796c1.908,33.464-31.872,41.215-74.852,33.282c-41.287-7.621-69.207-26.906-59.484-55.653
						c6.857-20.275,39.969-75.196,82.083-67.423C322.655,170.933,330.99,236.304,331.93,252.796z"/>
					<g>
						
							<path style="fill:#FFFFFF;stroke:#000000;stroke-width:2;stroke-linecap:round;stroke-linejoin:round;stroke-miterlimit:10;" d="
							M264.151,163.616c-6.07-48.696-13.618-82.382-49.176-111.48c-4.994-8.909-9.828-13.397-13.197-12.83
							c-5.093,0.856-5.609,7.363-5.889,11.937c-2.546,41.685,11.951,100.025,40.702,127.027"/>
						
							<path style="fill:#FFFFFF;stroke:#000000;stroke-width:2;stroke-linecap:round;stroke-linejoin:round;stroke-miterlimit:10;" d="
							M246.963,175.466c-8.369-20.344-6.142-29.888-8.18-55.297c-1.837-22.902-18.984-50.055-37.007-63.068
							C203.34,99.649,218.705,141.582,246.963,175.466z"/>
					</g>
					<g>
						
							<path style="fill:#FFFFFF;stroke:#000000;stroke-width:2;stroke-linecap:round;stroke-linejoin:round;stroke-miterlimit:10;" d="
							M282.513,167.573c5.567-48.756,12.767-82.518,48.023-111.981c4.901-8.96,9.689-13.497,13.064-12.966
							c5.101,0.804,5.685,7.305,6.012,11.875c2.977,41.656-14.125,101.2-42.595,128.497"/>
						
							<path style="fill:#FFFFFF;stroke:#000000;stroke-width:2;stroke-linecap:round;stroke-linejoin:round;stroke-miterlimit:10;" d="
							M299.822,179.245c8.159-20.43,5.833-29.95,7.609-55.379c1.6-22.919,18.467-50.248,36.354-63.447
							C342.661,102.983,327.729,145.072,299.822,179.245z"/>
					</g>
					<g>
						<g>
							
								<ellipse transform="matrix(0.3848 -0.923 0.923 0.3848 -40.2374 430.5812)" cx="302.872" cy="245.474" rx="12.733" ry="10.675"/>
							<path style="fill:#FFFFFF;" d="M298.151,239.35c1.991-2.501,5.046-3.38,6.825-1.965c1.778,1.416,1.606,4.591-0.385,7.092
								c-1.991,2.501-5.047,3.381-6.825,1.965C295.988,245.026,296.16,241.851,298.151,239.35z"/>
						</g>
						<g>
							<path d="M218.19,232.573c-0.503-7.014,3.855-13.043,9.736-13.465c5.881-0.422,11.056,4.922,11.56,11.936
								c0.504,7.014-3.855,13.043-9.736,13.465C223.869,244.932,218.693,239.588,218.19,232.573z"/>
							<path style="fill:#FFFFFF;" d="M221.867,228.464c0.653-3.129,2.986-5.289,5.211-4.825c2.225,0.464,3.5,3.377,2.847,6.507
								s-2.986,5.289-5.211,4.825C222.488,234.506,221.214,231.593,221.867,228.464z"/>
						</g>
					</g>
					<g>
						
							<path style="fill:#FFFFFF;stroke:#000000;stroke-width:2;stroke-linecap:round;stroke-linejoin:round;stroke-miterlimit:10;" d="
							M246.676,247.088c-7.867,39.55,30.392,45.919,33.881,5.747"/>
						
							<path style="fill:#FFFFFF;stroke:#000000;stroke-width:2;stroke-linecap:round;stroke-linejoin:round;stroke-miterlimit:10;" d="
							M255.049,251.861c-0.387,3.292-0.143,6.657,0.952,10.542c3.391,0.909,6.898,1.382,10.677,1.325
							c1.645-2.948,2.919-6.102,3.785-9.365"/>
						
							<path style="fill:#FFFFFF;stroke:#000000;stroke-width:2;stroke-linecap:round;stroke-linejoin:round;stroke-miterlimit:10;" d="
							M245.76,245.796c1.552,2.572,4.077,4.541,6.95,5.42c2.873,0.879,6.067,0.661,10.199-0.706
							c2.342,2.615,5.724,4.272,9.225,4.518c3.502,0.247,7.083-0.919,9.768-3.18"/>
						
							<path style="fill:#FFFFFF;stroke:#000000;stroke-width:2;stroke-linecap:round;stroke-linejoin:round;stroke-miterlimit:10;" d="
							M264.347,239.776c-0.48,3.57-0.961,7.14-1.442,10.71"/>
						
							<path style="fill:#FFFFFF;stroke:#000000;stroke-width:2;stroke-linecap:round;stroke-linejoin:round;stroke-miterlimit:10;" d="
							M255.21,235.961c0.6-3.252,5.437-5.085,10.802-4.095c5.366,0.99,9.229,4.429,8.629,7.681
							c-0.6,3.252-10.802,4.095-10.802,4.095S254.61,239.213,255.21,235.961z"/>
						
							<path style="fill:#FFFFFF;stroke:#000000;stroke-width:2;stroke-linecap:round;stroke-linejoin:round;stroke-miterlimit:10;" d="
							M245.76,279.98c2.447,3.239,6.438,5.707,10.872,6.722c4.433,1.015,9.257,0.566,13.14-1.223"/>
					</g>
				</g>
				
					<path style="fill:#FFFFFF;stroke:#000000;stroke-width:2;stroke-linecap:round;stroke-linejoin:round;stroke-miterlimit:10;" d="
					M266.262,163.152c3.414-2.234,4.899-6.383,6.787-10c1.888-3.618,5.104-7.294,9.174-7.008c2.379,0.167,4.583,1.854,5.365,4.107
					c0.782,2.253,0.099,4.942-1.665,6.548c3.793-1.663,8.785,0.585,10.053,4.528c1.268,3.943-1.477,8.68-5.529,9.54
					c2.112,1.57,2.726,4.829,1.329,7.06c-1.397,2.231-4.596,3.103-6.932,1.889"/>
			</g>
			<g>
				<path style="fill:none;stroke:#000000;stroke-linecap:round;stroke-linejoin:round;stroke-miterlimit:10;" d="M330.492,252.467
					c-8.767-3.122-19.354-0.138-25.2,7.104c-5.846,7.242-6.53,18.22-1.629,26.132"/>
				<path style="fill:none;stroke:#000000;stroke-linecap:round;stroke-linejoin:round;stroke-miterlimit:10;" d="M197.768,227.873
					c9.415,0.26,18.394,6.53,21.883,15.279s1.286,19.477-5.368,26.144"/>
			</g>
		</g>
		<g>
			<g>
				<g>
					
						<path style="fill:#FFFFFF;stroke:#000000;stroke-width:2;stroke-linecap:round;stroke-linejoin:round;stroke-miterlimit:10;" d="
						M192.045,255.512c-2.26-8.84-4.52-17.681-6.78-26.521c-0.567-2.219-1.16-4.495-2.449-6.331
						c-1.288-1.836-3.449-3.157-5.578-2.704c-2.128,0.453-3.779,3.173-2.789,5.21c-0.174-3.79-0.374-7.696-1.914-11.097
						c-1.539-3.401-4.777-6.204-8.33-5.885c-3.553,0.319-6.582,4.793-4.906,8.119c-2.025-6.644-6.798-12.242-12.805-15.018
						c-1.998-0.923-4.209-1.551-6.368-1.136c-2.159,0.416-4.227,2.086-4.672,4.377c-0.445,2.291,1.256,4.917,3.443,4.792
						c-5.917-3.884-13.08-5.595-20.04-4.787c-2.394,0.278-5.209,1.274-5.803,3.768c-0.638,2.681,1.733,4.971,3.884,6.469
						c6.951,4.841,14.427,8.832,22.24,11.874c-1.246-1.523-3.599-1.835-5.191-0.69c-1.592,1.145-2.213,3.599-1.371,5.412
						c1.021,2.199,3.545,2.971,5.793,3.521c5.703,1.396,11.407,2.791,17.11,4.187c-1.767-0.312-3.626-0.565-5.325,0.078
						c-1.699,0.643-3.154,2.469-2.851,4.351c0.357,2.216,2.715,3.244,4.75,3.826c5.623,1.606,11.371,2.735,17.173,3.372
						c-1.423-1.598-4.339-0.17-4.691,2.022c-0.351,2.192,1.225,4.287,3.134,5.142c1.909,0.854,4.069,0.761,6.148,0.654
						C179.39,258.229,184.921,257.943,192.045,255.512z"/>
					<path style="fill:none;stroke:#000000;stroke-width:2;stroke-linecap:round;stroke-linejoin:round;stroke-miterlimit:10;" d="
						M152.518,223.825c14.152,7.004,26.669,17.497,36.24,30.378"/>
				</g>
				<g>
					
						<path style="fill:#FFFFFF;stroke:#000000;stroke-width:2;stroke-linecap:round;stroke-linejoin:round;stroke-miterlimit:10;" d="
						M184.074,281.842c-17.617-16.694,18.001-44.101,32.754-30.979c20.759,18.463,43.038,95.586,31.328,99.56
						C238.297,353.769,209.284,305.733,184.074,281.842z"/>
					<g>
						<path style="fill:none;stroke:#000000;stroke-width:2;stroke-linecap:round;stroke-linejoin:round;stroke-miterlimit:10;" d="
							M223.262,257.927c-5.732-0.342-11.552,2.483-14.83,7.197"/>
						<path style="fill:none;stroke:#000000;stroke-width:2;stroke-linecap:round;stroke-linejoin:round;stroke-miterlimit:10;" d="
							M192.979,263.572c-4.923,4.337-8.307,10.388-9.425,16.853"/>
						<path style="fill:none;stroke:#000000;stroke-width:2;stroke-linecap:round;stroke-linejoin:round;stroke-miterlimit:10;" d="
							M225.934,287.136c3.328-2.129,7.319-3.206,11.266-3.041"/>
						<path style="fill:none;stroke:#000000;stroke-width:2;stroke-linecap:round;stroke-linejoin:round;stroke-miterlimit:10;" d="
							M216.383,318.548c2.157-6.531,8.804-11.297,15.682-11.244"/>
						<path style="fill:none;stroke:#000000;stroke-width:2;stroke-linecap:round;stroke-linejoin:round;stroke-miterlimit:10;" d="
							M249.091,329.792c-3.926-1.759-8.86-0.97-12.042,1.924"/>
					</g>
				</g>
			</g>
			<g>
				
					<path style="fill:#FFFFFF;stroke:#000000;stroke-width:2;stroke-linecap:round;stroke-linejoin:round;stroke-miterlimit:10;" d="
					M187.725,326.509c-12.829-2.399-22.501-21.037-11.857-32.345c9.343-9.926,35.83-12.578,41.119-1.812
					C222.122,302.804,201.704,329.123,187.725,326.509z"/>
				<path style="fill:none;stroke:#000000;stroke-width:2;stroke-linecap:round;stroke-linejoin:round;stroke-miterlimit:10;" d="
					M196.555,291.837c4.905-2.64,10.536-3.913,16.1-3.638"/>
				<path style="fill:none;stroke:#000000;stroke-width:2;stroke-linecap:round;stroke-linejoin:round;stroke-miterlimit:10;" d="
					M205.031,302.494c4.71-1.792,8.911-4.898,12.006-8.874"/>
			</g>
		</g>
	</g>
</g>
</svg>
